<svg width="382" height="333" viewBox="0 0 382 333" fill="none" xmlns="http://www.w3.org/2000/svg">
<path d="M106.28 39.96C106.298 42.8773 105.322 45.7337 103.476 48.167C101.63 50.6002 98.9965 52.5009 95.9096 53.628C92.8228 54.7551 89.4216 55.0579 86.1372 54.498C82.8527 53.938 79.8329 52.5406 77.4606 50.4829C75.0883 48.4251 73.4702 45.7997 72.8115 42.9394C72.1528 40.0791 72.4832 37.1127 73.7607 34.4162C75.0383 31.7198 77.2054 29.4147 79.9875 27.7932C82.7696 26.1717 86.0414 25.3067 89.388 25.308C93.8542 25.3062 98.1392 26.847 101.305 29.593C104.471 32.3391 106.26 36.0668 106.28 39.96Z" fill="#F5F5F5"/>
<path d="M102.254 39.96C102.266 42.182 101.521 44.3572 100.113 46.2098C98.7059 48.0624 96.6992 49.5091 94.3475 50.3664C91.9959 51.2238 89.4051 51.4532 86.9037 51.0257C84.4023 50.5982 82.1028 49.533 80.2966 47.965C78.4904 46.397 77.2588 44.3969 76.758 42.2182C76.2572 40.0394 76.5096 37.7801 77.4833 35.7265C78.457 33.673 80.1082 31.9176 82.2275 30.683C84.3468 29.4483 86.8389 28.7899 89.388 28.7912C92.7922 28.7876 96.0589 29.9617 98.471 32.0557C100.883 34.1497 102.244 36.9925 102.254 39.96Z" fill="#EBEBEB"/>
<path d="M102.254 39.6337C102.089 39.2006 101.974 38.7545 101.91 38.3017C101.624 37.0937 101.124 35.932 100.428 34.8584C99.9437 34.1271 99.3699 33.4438 98.7164 32.8205C97.9695 32.11 97.1194 31.4876 96.1876 30.969C95.6834 30.6889 95.1575 30.4397 94.6138 30.2231C93.4604 29.7615 92.2348 29.4518 90.9771 29.304C90.3182 29.2337 89.6542 29.207 88.9907 29.2241C88.3269 29.2456 87.6657 29.3079 87.012 29.4106C86.3807 29.5168 85.76 29.666 85.1554 29.8568C84.567 30.0366 83.9971 30.2594 83.4517 30.5228C82.9185 30.7629 82.4076 31.039 81.9237 31.3486C80.2396 32.4201 78.8833 33.8357 77.9738 35.4712C77.3543 36.5773 76.9391 37.7618 76.7438 38.981C76.7149 39.4311 76.6329 39.8774 76.4993 40.313C76.3411 39.8627 76.2942 39.3883 76.3618 38.921C76.4172 37.6333 76.7489 36.366 77.3397 35.1848C77.7379 34.3604 78.2511 33.582 78.8677 32.8671C79.5808 32.0441 80.4187 31.3093 81.3584 30.6826C81.8702 30.3435 82.4089 30.0364 82.9704 29.7635C83.5598 29.4911 84.1729 29.2595 84.804 29.0709C85.4583 28.8637 86.1301 28.7012 86.8133 28.5847C87.516 28.463 88.2289 28.3917 88.9449 28.3716C89.6597 28.3523 90.3751 28.3835 91.0841 28.4648C91.774 28.5435 92.4559 28.6682 93.124 28.8378C93.765 29.0053 94.3907 29.2146 94.9958 29.4638C95.5769 29.704 96.1362 29.9823 96.6689 30.2963C97.655 30.8672 98.547 31.5528 99.32 32.3343C99.9848 33.0158 100.557 33.7622 101.024 34.5587C101.702 35.7049 102.127 36.952 102.277 38.2351C102.389 38.6969 102.381 39.1748 102.254 39.6337Z" fill="#E0E0E0"/>
<path d="M90.8396 46.6866L90.916 48.618H88.9144V46.7199C87.1362 46.6924 85.4026 46.231 83.9102 45.3879L84.8957 43.29C86.0561 43.9754 87.402 44.3841 88.7998 44.4755L88.7539 41.5651C86.523 41.1188 84.0248 40.5061 83.9866 38.0086C83.9866 36.1638 85.4687 34.5521 88.624 34.1991V32.261H90.6257V34.1658C92.0656 34.2027 93.4747 34.5383 94.736 35.1448L93.7428 37.296C92.8005 36.8317 91.7617 36.5351 90.6868 36.4235L90.7403 39.3939C92.9712 39.8201 95.4236 40.4329 95.4695 42.8971C95.5 44.7219 93.972 46.3136 90.8396 46.6866ZM88.7081 38.9943L88.6622 36.5168C87.6079 36.7432 87.1954 37.256 87.203 37.8488C87.2106 38.4415 87.86 38.7679 88.7081 38.9943ZM92.2225 43.1568C92.2225 42.5507 91.6266 42.2244 90.7632 41.9713V44.3822C91.8023 44.1758 92.2301 43.7162 92.2225 43.1568Z" fill="#E0E0E0"/>
<path d="M62.6478 111.955C62.9498 113.731 62.6402 115.546 61.7583 117.17C60.8764 118.793 59.4619 120.152 57.6937 121.074C55.9255 121.997 53.8832 122.441 51.8252 122.351C49.7672 122.261 47.7862 121.641 46.1327 120.569C44.4793 119.497 43.2278 118.022 42.5367 116.329C41.8457 114.637 41.746 112.804 42.2504 111.063C42.7548 109.321 43.8406 107.749 45.3704 106.546C46.9001 105.342 48.805 104.562 50.844 104.302C53.5732 103.953 56.3496 104.564 58.563 105.999C60.7764 107.433 62.2456 109.576 62.6478 111.955Z" fill="#F5F5F5"/>
<path d="M60.1879 112.268C60.4178 113.622 60.1816 115.005 59.5093 116.243C58.8369 117.48 57.7586 118.516 56.4108 119.219C55.063 119.922 53.5063 120.26 51.9376 120.192C50.369 120.123 48.859 119.65 47.5986 118.833C46.3383 118.016 45.3843 116.892 44.8575 115.602C44.3306 114.312 44.2544 112.915 44.6387 111.587C45.023 110.26 45.8504 109.062 47.0162 108.144C48.182 107.227 49.6339 106.631 51.188 106.433C52.2184 106.301 53.2685 106.347 54.2785 106.569C55.2884 106.791 56.2384 107.184 57.0741 107.726C57.9098 108.267 58.6149 108.947 59.1492 109.727C59.6835 110.506 60.0364 111.369 60.1879 112.268Z" fill="#EBEBEB"/>
<path d="M60.1497 112.054C60.0059 111.798 59.8908 111.531 59.8059 111.255C59.5056 110.537 59.0804 109.863 58.5453 109.257C58.1755 108.854 57.7581 108.486 57.2999 108.158C56.7703 107.784 56.1874 107.47 55.5657 107.226C55.2316 107.093 54.8869 106.982 54.5343 106.893C53.7897 106.705 53.0172 106.616 52.2423 106.627C51.8351 106.634 51.429 106.667 51.0275 106.726C50.6267 106.793 50.2311 106.882 49.8433 106.993C49.4682 107.107 49.1031 107.245 48.7508 107.406C48.4116 107.561 48.0872 107.739 47.7805 107.939C47.482 108.128 47.201 108.337 46.9401 108.565C46.4515 108.981 46.0276 109.451 45.6795 109.963C45.3642 110.409 45.1078 110.885 44.9155 111.382C44.6533 112.106 44.5194 112.86 44.5182 113.62C44.5555 113.903 44.5555 114.189 44.5182 114.472C44.3777 114.209 44.3023 113.923 44.2967 113.633C44.1972 112.842 44.2697 112.042 44.5106 111.275C44.6789 110.743 44.9174 110.229 45.2211 109.743C45.572 109.186 46.009 108.673 46.5199 108.218C46.7926 107.974 47.0891 107.752 47.4061 107.552C47.7336 107.333 48.0811 107.137 48.4452 106.966C48.8223 106.787 49.2158 106.636 49.6217 106.513C50.0365 106.384 50.4634 106.286 50.8976 106.22C51.3319 106.155 51.7712 106.12 52.2117 106.114C52.6412 106.105 53.0708 106.129 53.4952 106.187C53.904 106.237 54.3076 106.315 54.7023 106.42C55.0802 106.521 55.4481 106.648 55.8025 106.8C57.0277 107.313 58.0803 108.093 58.8585 109.064C59.3994 109.713 59.7959 110.445 60.0274 111.222C60.1317 111.49 60.1732 111.773 60.1497 112.054Z" fill="#E0E0E0"/>
<path d="M53.9001 117.216L54.1217 118.401L52.8993 118.575L52.7159 117.436C51.6292 117.556 50.5254 117.408 49.5301 117.01L49.9579 115.618C50.7363 115.948 51.6002 116.095 52.4638 116.044L52.1353 114.272C50.7295 114.172 49.1481 113.993 48.873 112.467C48.6667 111.342 49.4231 110.243 51.3178 109.803L51.0963 108.625L52.3187 108.458L52.5326 109.617C53.411 109.535 54.2992 109.637 55.1225 109.917L54.7558 111.309C54.1272 111.099 53.4574 110.999 52.7847 111.016L53.1209 112.82C54.519 112.914 56.0775 113.093 56.3526 114.592C56.5359 115.678 55.7719 116.763 53.9001 117.216ZM51.8221 112.687L51.547 111.222C50.9205 111.435 50.7219 111.781 50.783 112.134C50.8441 112.487 51.2567 112.634 51.8221 112.707V112.687ZM54.3891 114.958C54.3203 114.585 53.9307 114.432 53.373 114.346L53.6404 115.811C54.2439 115.631 54.4502 115.318 54.3891 114.978V114.958Z" fill="#E0E0E0"/>
<path d="M329.105 199.555L325.531 215.599L352.838 220.222L356.413 204.178L329.105 199.555Z" fill="#EBEBEB"/>
<path d="M356.467 204.395C356.371 204.461 356.269 204.519 356.162 204.569L355.275 205.015L351.975 206.647L341.027 211.975L340.935 212.014L340.866 211.948L340.744 211.788C337.551 208.458 334.632 205.514 332.539 203.336L330.048 200.739L329.383 200.026C329.302 199.949 329.231 199.864 329.169 199.773C329.262 199.841 329.346 199.917 329.422 200L330.117 200.666L332.646 203.203L340.904 211.608L341.065 211.775H340.912L351.898 206.52L355.237 204.948L356.146 204.535C356.247 204.479 356.355 204.432 356.467 204.395Z" fill="#E0E0E0"/>
<path d="M325.586 215.817C325.54 215.771 328.084 213.919 331.263 211.681C334.441 209.444 337.061 207.685 337.107 207.719C337.153 207.752 334.609 209.617 331.423 211.855C328.237 214.092 325.632 215.864 325.586 215.817Z" fill="#E0E0E0"/>
<path d="M346.222 209.051C346.291 209.051 347.826 211.555 349.667 214.698C351.509 217.842 352.968 220.446 352.892 220.446C352.815 220.446 351.287 217.948 349.446 214.805C347.605 211.661 346.161 209.077 346.222 209.051Z" fill="#E0E0E0"/>
<path d="M270.907 34.7785C270.808 34.4232 270.759 34.0586 270.761 33.6929C270.747 33.2457 270.691 32.8003 270.593 32.3609C270.509 31.7701 270.378 31.185 270.204 30.6094C269.77 29.0242 269.067 27.5045 268.118 26.1005C266.879 24.2398 265.246 22.6012 263.305 21.272C260.968 19.6571 258.227 18.5437 255.306 18.022C251.958 17.4213 248.488 17.6098 245.251 18.5681C243.504 19.0701 241.855 19.8023 240.362 20.7392C239.591 21.2171 238.856 21.7376 238.162 22.2977C237.473 22.8886 236.832 23.5206 236.244 24.1891C233.762 26.9841 232.37 30.3973 232.272 33.9306C232.173 37.4639 233.372 40.9322 235.694 43.8295C236.245 44.5304 236.85 45.1979 237.504 45.8275C238.169 46.4164 238.876 46.9681 239.621 47.4791C241.058 48.4802 242.663 49.2821 244.38 49.8568C248.531 51.267 253.113 51.3837 257.351 50.1871C261.589 48.9904 265.223 46.5539 267.637 43.29C268.663 41.9274 269.451 40.4393 269.974 38.8744C270.182 38.3074 270.345 37.7289 270.463 37.1428C270.577 36.7176 270.656 36.2858 270.7 35.8508C270.722 35.4855 270.791 35.1235 270.907 34.7719C270.95 35.1349 270.95 35.501 270.907 35.8641C270.906 36.3108 270.86 36.7566 270.769 37.1961C270.688 37.7989 270.556 38.3956 270.372 38.981C269.905 40.604 269.152 42.1542 268.141 43.5764C266.656 45.6772 264.673 47.4772 262.325 48.8555C259.977 50.2339 257.318 51.1588 254.526 51.5684C250.987 52.0843 247.354 51.7623 244.006 50.636C242.196 50.0377 240.501 49.2022 238.979 48.1585C238.192 47.6228 237.444 47.0444 236.74 46.4269C236.048 45.7755 235.407 45.0834 234.823 44.3556C232.358 41.3035 231.083 37.6418 231.186 33.9102C231.289 30.1787 232.765 26.5747 235.396 23.6297C236.022 22.9254 236.701 22.2579 237.428 21.6317C238.165 21.0408 238.946 20.4934 239.766 19.9933C241.341 19.0137 243.081 18.2521 244.923 17.7356C248.101 16.809 251.497 16.5985 254.794 17.1237C258.091 17.6488 261.181 18.8926 263.778 20.7392C265.757 22.1463 267.405 23.8742 268.63 25.8275C269.56 27.2831 270.225 28.8559 270.601 30.4895C270.755 31.0813 270.857 31.6824 270.907 32.2877C270.973 32.7291 270.994 33.175 270.968 33.6197C270.998 34.0067 270.977 34.3955 270.907 34.7785Z" fill="#EBEBEB"/>
<path d="M266.987 24.1092C267.025 24.1558 266.674 24.4289 265.994 24.8684L264.734 25.661C264.481 25.8075 264.222 25.974 263.931 26.1338L262.961 26.5734C259.459 28.3145 255.478 29.1895 251.448 29.1042L249.706 29.0376L248.032 28.8045C247.757 28.7645 247.482 28.7379 247.215 28.6846L246.451 28.5048C245.939 28.3849 245.427 28.2784 244.923 28.1385C243.217 27.6403 241.578 26.9838 240.033 26.1805C237.405 24.7952 236.129 23.5165 236.213 23.4565C236.297 23.3966 237.741 24.4022 240.392 25.601C241.949 26.2917 243.573 26.8622 245.244 27.306C245.71 27.4192 246.199 27.5125 246.695 27.619L247.459 27.7855L248.223 27.8854L249.82 28.0919L251.486 28.1518C255.346 28.2202 259.168 27.473 262.625 25.974L263.595 25.6077C263.893 25.4678 264.168 25.3213 264.428 25.2014L265.765 24.5354C266.506 24.2224 266.941 24.0559 266.987 24.1092Z" fill="#EBEBEB"/>
<path d="M235.64 44.8684C235.595 44.8151 235.954 44.5487 236.634 44.1092L237.894 43.29C238.146 43.1435 238.406 42.977 238.696 42.8171L239.659 42.3776C243.163 40.6354 247.147 39.7603 251.18 39.8468L252.922 39.9134L254.595 40.1465C254.87 40.1864 255.145 40.2131 255.413 40.2597L256.177 40.4462C256.689 40.5661 257.2 40.6726 257.705 40.8058C259.411 41.3195 261.05 41.9892 262.594 42.8038C265.215 44.1891 266.491 45.4678 266.414 45.5278C266.338 45.5877 264.886 44.582 262.243 43.3832C260.699 42.6899 259.088 42.1149 257.43 41.665C256.964 41.5517 256.467 41.4585 255.978 41.3453L255.214 41.1854L254.45 41.0855L252.846 40.8791L251.188 40.8191C247.322 40.7507 243.494 41.5003 240.033 43.0036L239.055 43.3699C238.758 43.5098 238.49 43.6563 238.23 43.7762L236.893 44.4422C236.122 44.7552 235.686 44.9217 235.64 44.8684Z" fill="#EBEBEB"/>
<path d="M270.891 35.1715C270.891 35.4312 262.105 35.4578 251.295 35.2247C240.484 34.9916 231.714 34.632 231.721 34.3456C231.729 34.0592 240.5 34.0592 251.318 34.2923C262.136 34.5254 270.899 34.9117 270.891 35.1715Z" fill="#EBEBEB"/>
<path d="M250.401 51.4218C250.103 51.4218 250.08 43.7695 250.34 34.3389C250.6 24.9084 251.058 17.276 251.356 17.316C251.654 17.3559 251.677 24.9683 251.417 34.3989C251.157 43.8294 250.699 51.4285 250.401 51.4218Z" fill="#EBEBEB"/>
<path d="M250.401 51.3952C250.332 51.4951 248.17 50.2164 245.68 47.3326C244.23 45.6316 243.055 43.7648 242.188 41.7848C241.127 39.3439 240.608 36.7492 240.66 34.1392C240.736 31.5233 241.409 28.9469 242.639 26.5601C243.629 24.6289 244.914 22.8233 246.459 21.1921C249.095 18.4082 251.272 17.1961 251.348 17.276C251.425 17.356 249.477 18.7812 247.055 21.5984C245.648 23.248 244.468 25.0363 243.54 26.9264C242.416 29.2199 241.801 31.6789 241.73 34.1725C241.68 36.6666 242.146 39.1481 243.105 41.4985C243.904 43.4246 244.974 45.2568 246.291 46.953C248.567 49.8568 250.508 51.282 250.401 51.3952Z" fill="#EBEBEB"/>
<path d="M251.791 17.316C251.868 17.2161 254.022 18.4881 256.513 21.3786C257.968 23.0764 259.148 24.941 260.02 26.9197C261.082 29.3628 261.6 31.9598 261.548 34.5721C261.476 37.1861 260.803 39.7611 259.569 42.1445C258.577 44.0768 257.292 45.8844 255.749 47.5191C253.113 50.2963 250.936 51.5151 250.867 51.4285C250.798 51.3419 252.731 49.9234 255.153 47.1062C256.568 45.461 257.748 43.6718 258.667 41.7782C259.793 39.4825 260.407 37.0212 260.478 34.5254C260.527 32.0319 260.064 29.5508 259.111 27.1994C258.309 25.273 257.237 23.4408 255.917 21.7449C253.648 18.8278 251.685 17.3893 251.791 17.316Z" fill="#EBEBEB"/>
<path d="M61.6089 226.52L62.5792 224.642C63.3988 223.001 63.4371 221.143 62.6856 219.478C62.3135 218.653 61.7587 217.9 61.0529 217.263C60.3471 216.625 59.5041 216.114 58.572 215.761C57.6399 215.407 56.6371 215.217 55.6206 215.201C54.6042 215.185 53.5941 215.344 52.6481 215.668C50.7375 216.323 49.2037 217.613 48.3841 219.254L47.3679 221.159C46.3656 220.925 45.3005 221.012 44.3656 221.405C43.4308 221.797 42.688 222.468 42.2721 223.296L36.7483 234.432C36.293 235.347 36.2703 236.381 36.6852 237.31C37.1001 238.239 37.9191 238.988 38.9639 239.394L52.2499 244.422C53.3026 244.822 54.4942 244.841 55.5629 244.475C56.6316 244.109 57.49 243.388 57.9493 242.471L63.496 231.342C63.9287 230.478 63.975 229.504 63.6258 228.612C63.2766 227.719 62.5571 226.973 61.6089 226.52ZM50.5462 236.363L47.0776 235.031L48.7049 233.033C48.424 232.678 48.2825 232.253 48.3017 231.822C48.3208 231.391 48.4996 230.977 48.8112 230.641C49.1228 230.306 49.5506 230.068 50.0304 229.962C50.5103 229.857 51.0166 229.889 51.4735 230.055C51.9304 230.221 52.3134 230.511 52.5652 230.883C52.817 231.254 52.9241 231.687 52.8705 232.116C52.8168 232.545 52.6053 232.947 52.2676 233.263C51.9299 233.578 51.4841 233.79 50.9969 233.866C50.8365 234.845 50.5462 236.363 50.5462 236.363ZM60.0885 225.921L48.9494 221.698L49.9121 219.84C50.5798 218.588 51.7822 217.613 53.263 217.122C54.7438 216.632 56.3857 216.665 57.8387 217.215C59.2917 217.765 60.4408 218.788 61.0409 220.066C61.641 221.344 61.6447 222.776 61.0512 224.056L60.0885 225.921Z" fill="#EBEBEB"/>
<path d="M332.615 105.108C332.616 106.047 332.298 106.966 331.701 107.747C331.104 108.529 330.254 109.139 329.259 109.499C328.264 109.86 327.169 109.955 326.112 109.773C325.055 109.591 324.084 109.14 323.321 108.477C322.558 107.814 322.038 106.969 321.826 106.048C321.615 105.127 321.721 104.172 322.132 103.304C322.543 102.436 323.24 101.693 324.135 101.17C325.03 100.647 326.083 100.368 327.16 100.366C327.875 100.365 328.584 100.487 329.245 100.725C329.906 100.963 330.507 101.312 331.014 101.752C331.521 102.193 331.923 102.716 332.197 103.291C332.472 103.867 332.614 104.485 332.615 105.108Z" fill="#EBEBEB"/>
<path d="M347.245 97.7278C348.604 95.388 347.53 92.5309 344.846 91.3464C342.161 90.1619 338.884 91.0985 337.525 93.4383C336.166 95.7782 337.241 98.6352 339.925 99.8197C342.609 101.004 345.887 100.068 347.245 97.7278Z" fill="#EBEBEB"/>
<path d="M342.45 120.888C345.458 120.885 347.894 118.568 347.889 115.714C347.884 112.859 345.442 110.548 342.433 110.552C339.425 110.556 336.99 112.872 336.994 115.727C336.999 118.581 339.441 120.892 342.45 120.888Z" fill="#EBEBEB"/>
<path d="M340.836 115.111C340.599 115.411 336.977 113.62 332.745 111.115C328.512 108.611 325.265 106.327 325.495 106.027C325.724 105.727 329.315 107.526 333.585 110.023C337.856 112.521 341.065 114.812 340.836 115.111Z" fill="#EBEBEB"/>
<path d="M341.271 95.238C341.523 95.5244 338.727 97.7821 335.022 100.286C331.316 102.79 328.145 104.582 327.855 104.282C327.565 103.983 330.399 101.738 334.105 99.2406C337.81 96.7431 341.019 94.9782 341.271 95.238Z" fill="#EBEBEB"/>
<path d="M344.014 316.157C344.014 316.25 275.498 316.33 191.008 316.33C106.517 316.33 37.9861 316.25 37.9861 316.157C37.9861 316.064 106.486 315.984 191.008 315.984C275.529 315.984 344.014 316.057 344.014 316.157Z" fill="#263238"/>
<path d="M302.085 62.4442C302.154 62.5174 292.635 69.3706 280.831 77.7622C269.027 86.1538 259.393 92.8604 259.324 92.7871C259.256 92.7139 268.767 85.8674 280.579 77.4691C292.39 69.0709 302.009 62.3709 302.085 62.4442Z" fill="#263238"/>
<path d="M317.755 174.259C317.717 174.352 305.401 170.503 290.251 165.674C275.101 160.846 262.816 156.85 262.885 156.763C262.954 156.677 275.239 160.513 290.389 165.348C305.539 170.183 317.824 174.172 317.755 174.259Z" fill="#263238"/>
<path d="M62.7702 82.0246C62.8237 81.938 76.0943 88.0186 92.3981 95.6509C108.702 103.283 121.896 109.51 121.843 109.59C121.789 109.67 108.526 103.596 92.2147 95.9573C75.9033 88.3183 62.7167 82.1045 62.7702 82.0246Z" fill="#263238"/>
<path d="M67.5527 180.892C67.5527 180.799 78.4168 177.149 91.8938 172.74C105.371 168.331 116.342 164.828 116.38 164.915C116.418 165.001 105.524 168.651 92.0389 173.067C78.5543 177.482 67.5909 180.979 67.5527 180.892Z" fill="#263238"/>
<path d="M196.852 200.906C183.733 200.907 170.908 197.517 159.999 191.164C149.09 184.811 140.587 175.781 135.565 165.216C130.544 154.65 129.229 143.024 131.788 131.807C134.346 120.59 140.663 110.287 149.939 102.199C159.215 94.1121 171.034 88.6045 183.901 86.3728C196.768 84.1412 210.106 85.2859 222.226 89.6621C234.347 94.0384 244.707 101.45 251.996 110.958C259.285 120.467 263.175 131.647 263.175 143.083C263.155 158.412 256.161 173.108 243.728 183.948C231.294 194.788 214.437 200.886 196.852 200.906ZM196.852 85.934C183.884 85.9327 171.206 89.2839 160.423 95.5637C149.639 101.844 141.234 110.77 136.271 121.214C131.307 131.659 130.008 143.151 132.538 154.239C135.067 165.327 141.312 175.512 150.482 183.506C159.652 191.499 171.336 196.943 184.055 199.148C196.775 201.353 209.958 200.221 221.939 195.894C233.92 191.567 244.16 184.24 251.364 174.84C258.568 165.44 262.413 154.388 262.411 143.083C262.397 127.928 255.486 113.397 243.195 102.679C230.904 91.9611 214.237 85.9316 196.852 85.914V85.934Z" fill="#191616"/>
<path d="M280.701 142.258C280.701 142.258 280.701 141.858 280.648 141.072C280.648 140.679 280.648 140.193 280.594 139.614C280.541 139.034 280.594 138.362 280.48 137.616C280.365 136.87 280.327 136.004 280.243 135.065C280.159 134.126 279.96 133.107 279.8 131.995C279.441 129.783 278.891 127.246 278.096 124.429C277.185 121.296 276.037 118.219 274.658 115.218C273.039 111.658 271.089 108.219 268.829 104.935C263.3 96.9121 256.074 89.8768 247.536 84.2024C242.584 80.9072 237.22 78.1121 231.545 75.8707C225.406 73.4062 218.939 71.6165 212.293 70.5427C201.441 68.7968 190.304 68.9076 179.502 70.8691C175.708 71.5854 171.972 72.5153 168.317 73.6529C152.757 78.5962 139.223 87.4438 129.422 99.0808C126.865 102.112 124.584 105.311 122.599 108.651C122.118 109.504 121.575 110.33 121.147 111.202L119.795 113.806C118.985 115.584 118.153 117.363 117.503 119.194C116.085 122.892 115.019 126.685 114.317 130.536C113.613 134.418 113.245 138.341 113.217 142.271C113.246 146.203 113.611 150.128 114.31 154.013C115.015 157.843 116.08 161.616 117.496 165.295C118.16 167.133 119.024 168.911 119.788 170.689L121.14 173.293C121.568 174.172 122.118 174.998 122.599 175.844C124.577 179.188 126.856 182.391 129.414 185.421C139.218 197.06 152.754 205.91 168.317 210.856C171.985 211.986 175.734 212.907 179.54 213.613C190.342 215.575 201.48 215.686 212.331 213.939C225.122 211.843 237.177 207.175 247.536 200.306C256.07 194.628 263.288 187.588 268.806 179.56C271.066 176.276 273.016 172.837 274.635 169.277C276.012 166.288 277.161 163.222 278.073 160.1C278.837 157.283 279.418 154.772 279.777 152.541C279.937 151.428 280.113 150.409 280.22 149.47C280.327 148.531 280.38 147.679 280.457 146.913C280.533 146.147 280.556 145.481 280.571 144.915C280.587 144.349 280.61 143.849 280.625 143.456C280.625 142.671 280.678 142.271 280.678 142.271C280.678 142.271 280.678 142.671 280.678 143.456C280.678 143.849 280.678 144.336 280.678 144.915C280.678 145.494 280.678 146.174 280.579 146.913C280.48 147.652 280.441 148.531 280.365 149.47C280.289 150.409 280.098 151.435 279.945 152.547C279.593 154.765 279.051 157.303 278.272 160.126C277.368 163.257 276.227 166.332 274.857 169.33C273.247 172.905 271.302 176.357 269.043 179.653C263.526 187.715 256.3 194.787 247.75 200.493C237.357 207.415 225.247 212.116 212.392 214.219C205.254 215.394 197.969 215.75 190.725 215.278C186.939 215.05 183.177 214.594 179.464 213.913C175.645 213.202 171.886 212.27 168.21 211.122C152.571 206.167 138.967 197.284 129.116 185.594C126.54 182.55 124.241 179.334 122.24 175.977C121.759 175.125 121.209 174.292 120.773 173.413C120.338 172.534 119.872 171.668 119.413 170.796C118.603 169.011 117.763 167.226 117.121 165.381C115.698 161.69 114.628 157.904 113.92 154.059C112.453 146.25 112.453 138.285 113.92 130.476C114.634 126.632 115.707 122.846 117.129 119.154C117.793 117.309 118.657 115.524 119.421 113.739C119.879 112.867 120.33 111.995 120.781 111.122C121.231 110.25 121.759 109.417 122.248 108.558C124.248 105.203 126.547 101.989 129.124 98.9476C138.973 87.2593 152.574 78.3763 168.21 73.4198C171.881 72.2647 175.635 71.3214 179.448 70.596C190.296 68.6409 201.476 68.5369 212.369 70.2896C219.036 71.359 225.524 73.1488 231.683 75.6176C237.378 77.8713 242.761 80.6821 247.727 83.9959C256.279 89.7018 263.508 96.7739 269.027 104.835C271.284 108.133 273.228 111.585 274.841 115.158C276.212 118.157 277.353 121.232 278.256 124.362C279.02 127.186 279.578 129.73 279.93 131.948C280.082 133.06 280.243 134.079 280.35 135.018C280.457 135.957 280.503 136.816 280.564 137.582C280.625 138.348 280.655 139.014 280.663 139.58C280.671 140.146 280.663 140.646 280.663 141.039C280.709 141.858 280.701 142.258 280.701 142.258Z" fill="#263238"/>
<path d="M197.876 225.381V224.715C216.965 224.711 235.625 219.773 251.495 210.525C267.366 201.277 279.734 188.134 287.036 172.759C294.338 157.383 296.246 140.466 292.519 124.145C288.792 107.824 279.597 92.8334 266.097 81.0679C252.597 69.3023 235.399 61.2905 216.675 58.0455C197.952 54.8005 178.546 56.4679 160.91 62.8371C143.274 69.2062 128.2 79.9909 117.595 93.8277C106.99 107.664 101.329 123.932 101.329 140.573H100.565C100.565 93.8128 144.213 55.7708 197.853 55.7708C223.505 55.969 248.029 64.9911 266.088 80.8736C284.147 96.7562 294.279 118.214 294.279 140.576C294.279 162.938 284.147 184.396 266.088 200.278C248.029 216.161 223.505 225.183 197.853 225.381H197.876Z" fill="#191616"/>
<path d="M196.86 217.009V213.679C218.589 213.679 239.429 206.155 254.794 192.76C270.159 179.366 278.791 161.2 278.791 142.258C278.791 123.315 270.159 105.149 254.794 91.7547C239.429 78.3605 218.589 70.8358 196.86 70.8358V67.5058C219.603 67.5058 241.414 75.3814 257.495 89.4001C273.577 103.419 282.611 122.432 282.611 142.258C282.611 162.083 273.577 181.096 257.495 195.115C241.414 209.134 219.603 217.009 196.86 217.009Z" fill="#191616"/>
<path d="M296.661 140.573H292.841C292.617 118.739 282.51 97.8671 264.72 82.4975C246.93 67.1278 222.896 58.5048 197.849 58.5048C172.802 58.5048 148.769 67.1278 130.979 82.4975C113.189 97.8671 103.082 118.739 102.857 140.573H99.0374C99.0374 93.0802 143.349 54.4388 197.853 54.4388C224.049 54.4653 249.164 63.5486 267.688 79.696C286.211 95.8435 296.631 117.737 296.661 140.573Z" fill="#191616"/>
<path d="M198.586 238.175C137.887 238.175 88.5017 195.118 88.5017 142.204C88.5017 89.2906 137.887 46.2337 198.586 46.2337V49.5637C139.995 49.5637 92.3217 91.1221 92.3217 142.204C92.3217 193.287 139.995 234.845 198.586 234.845C257.178 234.845 304.836 193.287 304.836 142.204H308.656C308.656 195.138 259.294 238.175 198.586 238.175Z" fill="#191616"/>
<path d="M196.852 249.437H194.935V248.771H196.845L196.852 249.437Z" fill="#191616"/>
<path d="M187.18 249.084C185.904 248.997 184.605 248.891 183.36 248.764L183.444 248.098C184.712 248.218 186.003 248.325 187.264 248.411L187.18 249.084ZM175.72 247.839C174.444 247.645 173.16 247.432 171.9 247.206L172.06 246.54C173.298 246.766 174.566 246.979 175.834 247.173L175.72 247.839ZM164.39 245.621C163.16 245.328 161.907 245.008 160.677 244.675L160.906 244.009C162.128 244.342 163.366 244.675 164.596 244.955L164.39 245.621ZM153.35 242.464C152.143 242.064 150.936 241.638 149.744 241.205L150.042 240.592C151.218 241.025 152.425 241.445 153.625 241.845L153.35 242.464ZM142.662 238.428C141.508 237.928 140.37 237.409 139.216 236.876L139.575 236.29C140.706 236.816 141.867 237.336 142.998 237.835L142.662 238.428ZM132.508 233.493C131.415 232.9 130.315 232.287 129.253 231.668L129.674 231.109C130.736 231.728 131.828 232.341 132.913 232.927L132.508 233.493ZM122.95 227.745C121.927 227.079 120.903 226.367 119.894 225.654L120.383 225.141C121.369 225.841 122.385 226.54 123.401 227.213L122.95 227.745ZM114.057 221.232C113.102 220.466 112.163 219.68 111.254 218.901L111.788 218.428C112.69 219.201 113.63 219.98 114.577 220.746L114.057 221.232ZM105.913 213.986C105.057 213.147 104.202 212.294 103.377 211.435L103.965 211.009C104.782 211.861 105.63 212.714 106.486 213.546L105.913 213.986ZM98.594 206.14C97.83 205.228 97.066 204.309 96.3479 203.39L96.9743 203.017C97.6925 203.923 98.4412 204.842 99.2052 205.741L98.594 206.14ZM92.1611 197.722C91.5041 196.77 90.8471 195.784 90.2206 194.805L90.9158 194.472C91.5347 195.444 92.1841 196.417 92.8335 197.369L92.1611 197.722ZM86.6756 188.818C86.1179 187.805 85.5755 186.773 85.0636 185.754L85.7665 185.488C86.2707 186.5 86.8131 187.526 87.3632 188.531L86.6756 188.818ZM82.1909 179.494C81.7478 178.441 81.32 177.369 80.9227 176.31L81.6867 176.097C82.084 177.156 82.5042 178.222 82.9473 179.267L82.1909 179.494ZM78.7377 169.83C78.4168 168.744 78.1112 167.646 77.8285 166.553L78.5925 166.407C78.8675 167.492 79.1731 168.585 79.494 169.663L78.7377 169.83ZM76.3998 159.933C76.2012 158.834 76.0178 157.709 75.8497 156.603L76.6137 156.523C76.7742 157.629 76.9575 158.748 77.1562 159.853L76.3998 159.933ZM75.0934 149.85C75.0093 148.738 74.9482 147.599 74.91 146.48H75.674C75.674 147.592 75.7733 148.718 75.8574 149.81L75.0934 149.85ZM75.6358 139.78H74.8718C74.9177 138.655 74.9788 137.522 75.0552 136.403L75.8192 136.45C75.7657 137.536 75.7122 138.661 75.6358 139.78ZM76.5373 129.75L75.7733 129.67C75.9338 128.558 76.1171 127.432 76.3158 126.34L77.0798 126.447C76.9117 127.532 76.7283 128.645 76.5679 129.75H76.5373ZM78.5237 119.847L77.7597 119.7C78.0424 118.608 78.348 117.502 78.6689 116.423L79.4329 116.59C79.1349 117.662 78.8293 118.761 78.5543 119.88L78.5237 119.847ZM81.5797 110.15L80.8539 109.943C81.2589 108.878 81.6867 107.805 82.1222 106.746L82.8403 106.973C82.4354 108.025 82.0076 109.097 81.6103 110.15H81.5797ZM85.7053 100.739L85.0025 100.473C85.522 99.4471 86.0644 98.4148 86.6145 97.3958L87.3097 97.6822C86.7826 98.6945 86.2478 99.7202 85.7359 100.739H85.7053ZM90.8394 91.7149L90.1747 91.3952C90.8012 90.4095 91.4481 89.4327 92.1153 88.4648L92.7647 88.8111C92.1382 89.7635 91.4888 90.7425 90.87 91.7149H90.8394ZM96.9514 83.1701L96.3173 82.7905C97.0813 81.8714 97.8071 80.9456 98.5711 80.0399L99.1823 80.4328C98.4412 81.3319 97.6849 82.251 96.9667 83.1701H96.9514ZM103.942 75.1781L103.361 74.7452C104.187 73.8927 105.042 73.0336 105.898 72.1944L106.463 72.6406C105.63 73.4598 104.782 74.3123 103.957 75.1648L103.942 75.1781ZM111.773 67.7855L111.238 67.3126C112.147 66.5334 113.095 65.7475 114.034 64.9816L114.554 65.4745C113.63 66.2204 112.697 66.9996 111.788 67.7722L111.773 67.7855ZM120.368 61.0789L119.887 60.5594C120.88 59.8534 121.904 59.1541 122.943 58.4748L123.409 59.0076C122.385 59.6669 121.369 60.3662 120.383 61.0655L120.368 61.0789ZM129.643 55.0849L129.223 54.5321C130.277 53.9127 131.377 53.3 132.47 52.7072L132.875 53.2733C131.797 53.8727 130.713 54.4855 129.658 55.0982L129.643 55.0849ZM139.537 49.95L139.178 49.3573C140.308 48.8311 141.47 48.3116 142.608 47.8121L142.952 48.4115C141.814 48.8844 140.668 49.3972 139.537 49.95ZM149.935 45.621L149.637 45.0083C150.821 44.5754 152.028 44.1491 153.22 43.7562L153.495 44.3756C152.311 44.7485 151.111 45.1681 149.935 45.601V45.621ZM160.761 42.1778L160.532 41.5451C161.762 41.2121 163.015 40.8791 164.245 40.5927L164.451 41.2587C163.221 41.5118 161.968 41.8248 160.761 42.1578V42.1778ZM171.9 39.6337L171.747 38.9677C173.008 38.7346 174.284 38.5214 175.567 38.3017L175.705 38.9677C174.452 39.1941 173.176 39.4072 171.9 39.6337ZM183.291 38.0486L183.207 37.3826C184.483 37.256 185.782 37.1495 187.027 37.0629L187.088 37.7289C185.873 37.8155 184.582 37.962 183.314 38.0486H183.291Z" fill="#191616"/>
<path d="M194.942 37.4092V36.7432H196.86V37.4092H194.942Z" fill="#191616"/>
<path d="M357.061 164.322L315.462 165.082L316.05 189.526L357.648 188.766L357.061 164.322Z" fill="#191616"/>
<path d="M357.185 164.629C357.075 164.751 356.95 164.863 356.811 164.962L355.673 165.867L351.44 169.164L337.352 179.947L337.237 180.033L337.115 179.953L336.817 179.753L321.759 169.657C319.872 168.365 318.328 167.319 317.221 166.567C316.716 166.207 316.311 165.901 315.998 165.714C315.85 165.621 315.714 165.514 315.593 165.394C315.752 165.471 315.903 165.561 316.044 165.661L317.312 166.46L321.896 169.47L337.023 179.494L337.321 179.693H337.085L351.242 168.984L355.55 165.774L356.735 164.915C356.877 164.81 357.028 164.715 357.185 164.629Z" fill="#263238"/>
<path d="M316.174 189.81C316.097 189.75 319.146 186.347 322.981 182.198C326.816 178.048 330.002 174.738 330.086 174.798C330.17 174.858 327.122 178.262 323.279 182.411C319.436 186.56 316.296 189.89 316.174 189.81Z" fill="#263238"/>
<path d="M343.907 174.259C343.983 174.206 347.154 177.469 350.982 181.585C354.809 185.701 357.858 189.037 357.774 189.091C357.69 189.144 354.519 185.881 350.691 181.765C346.864 177.649 343.8 174.319 343.907 174.259Z" fill="#263238"/>
<path d="M318.809 64.7552C318.805 65.349 318.599 65.9282 318.217 66.4198C317.834 66.9114 317.294 67.2933 316.663 67.5172C316.032 67.7411 315.339 67.7969 314.672 67.6777C314.005 67.5585 313.393 67.2695 312.914 66.8473C312.435 66.4251 312.11 65.8887 311.981 65.3057C311.852 64.7227 311.923 64.1194 312.187 63.572C312.451 63.0245 312.895 62.5575 313.463 62.2299C314.031 61.9024 314.698 61.7289 315.379 61.7316C315.832 61.7333 316.28 61.813 316.698 61.9659C317.116 62.1189 317.495 62.3422 317.814 62.6231C318.132 62.9039 318.384 63.2368 318.555 63.6027C318.726 63.9686 318.812 64.3602 318.809 64.7552Z" fill="#455A64"/>
<path d="M308.472 60.8924C309.351 60.0661 310.413 59.4041 311.595 58.9465C312.776 58.4889 314.051 58.2452 315.344 58.2302C316.636 58.2153 317.918 58.4294 319.113 58.8595C320.308 59.2897 321.39 59.9269 322.293 60.7326C324.058 62.2777 326.808 59.9001 325.051 58.3483C323.785 57.2338 322.275 56.3517 320.612 55.7539C318.948 55.1562 317.164 54.855 315.364 54.868C313.565 54.881 311.787 55.2081 310.135 55.8298C308.482 56.4516 306.99 57.3555 305.745 58.4881C304.018 60.0599 306.746 62.4841 308.472 60.8924Z" fill="#455A64"/>
<path d="M296.76 46.8997C302.001 42.9437 308.259 40.4595 315.272 40.4462C322.258 40.3755 329.012 42.6285 334.158 46.7466C335.977 48.2317 338.742 45.8608 336.909 44.3623C331.032 39.6134 323.301 36.9938 315.287 37.0363C307.22 37.0363 300.053 39.9267 294.033 44.4688C292.138 45.8941 294.881 48.2917 296.76 46.8731V46.8997Z" fill="#455A64"/>
<path d="M301.383 54.652C303.132 52.9499 305.267 51.5823 307.654 50.6354C310.04 49.6885 312.625 49.1828 315.246 49.1503C317.868 49.1177 320.469 49.559 322.885 50.4463C325.301 51.3336 327.48 52.6477 329.284 54.3057C331.026 55.8641 333.776 53.4865 332.034 51.928C329.873 49.9573 327.271 48.3945 324.388 47.3367C321.505 46.2789 318.404 45.7485 315.277 45.7785C312.149 45.8084 309.062 46.3981 306.207 47.5109C303.352 48.6238 300.789 50.236 298.678 52.2477C296.982 53.8461 299.702 56.2437 301.406 54.652H301.383Z" fill="#455A64"/>
<path d="M59.5155 176.323C59.516 174.174 58.9484 172.054 57.8566 170.127C56.7649 168.2 55.1784 166.519 53.2204 165.213C51.2624 163.907 48.9854 163.012 46.5664 162.597C44.1473 162.183 41.6512 162.26 39.2718 162.822C36.8924 163.385 34.6937 164.418 32.8465 165.841C30.9992 167.264 29.553 169.039 28.6202 171.029C27.6874 173.018 27.2931 175.168 27.4678 177.312C27.6426 179.456 28.3817 181.535 29.6278 183.39L29.6737 183.443C30.2925 184.349 31.0641 184.995 31.8434 185.947L41.1642 196.71C41.4341 197.021 41.7833 197.274 42.1844 197.448C42.5854 197.623 43.0273 197.713 43.4753 197.713C43.9233 197.713 44.3652 197.623 44.7663 197.448C45.1673 197.274 45.5165 197.021 45.7864 196.71L54.9544 186.12C55.7718 185.268 56.5369 184.379 57.2464 183.456V183.416C58.7212 181.273 59.5051 178.823 59.5155 176.323ZM43.4715 182.417C42.0738 182.417 40.7074 182.056 39.5453 181.379C38.3831 180.702 37.4773 179.74 36.9424 178.614C36.4076 177.489 36.2676 176.25 36.5403 175.055C36.813 173.86 37.486 172.762 38.4744 171.901C39.4627 171.039 40.7219 170.452 42.0928 170.215C43.4636 169.977 44.8846 170.099 46.1759 170.565C47.4672 171.032 48.571 171.821 49.3475 172.834C50.124 173.847 50.5385 175.038 50.5385 176.257C50.5385 177.066 50.3554 177.868 49.9998 178.616C49.6442 179.364 49.123 180.043 48.4659 180.615C47.8089 181.188 47.0289 181.641 46.1706 181.95C45.3123 182.26 44.3925 182.418 43.4639 182.417H43.4715Z" fill="#455A64"/>
<path d="M71.5485 71.1954C71.8358 74.8403 70.876 78.4775 68.7906 81.6466C66.7053 84.8157 63.5882 87.3742 59.8339 88.9981C56.0796 90.6221 51.857 91.2385 47.7007 90.7694C43.5443 90.3002 39.6411 88.7666 36.4851 86.3626C33.3292 83.9586 31.0624 80.7924 29.9718 77.2648C28.8812 73.7372 29.0158 70.0068 30.3585 66.546C31.7013 63.0851 34.1918 60.0493 37.5148 57.823C40.8378 55.5966 44.8439 54.2798 49.0258 54.0392C51.797 53.8763 54.5778 54.1909 57.2095 54.9649C59.8412 55.739 62.2722 56.9574 64.3637 58.5505C66.4552 60.1437 68.1662 62.0803 69.399 64.25C70.6318 66.4196 71.3622 68.7797 71.5485 71.1954Z" fill="#191616"/>
<g opacity="0.3">
<path d="M66.468 71.0489C66.2171 70.5126 66.0327 69.9544 65.918 69.3839C65.4389 67.8965 64.7021 66.4815 63.7329 65.1881C63.0712 64.3084 62.3028 63.4934 61.4409 62.7572C60.4264 61.9162 59.2914 61.1931 58.064 60.606C57.4076 60.2904 56.7259 60.0167 56.0242 59.7868C55.2965 59.543 54.548 59.3492 53.7856 59.2074C52.9978 59.0604 52.1985 58.9646 51.3943 58.921C50.5641 58.8811 49.7316 58.8945 48.9037 58.961C48.0772 59.0387 47.2579 59.1656 46.4512 59.3406C45.6703 59.5156 44.9044 59.7381 44.1592 60.0066C43.4469 60.279 42.7576 60.5951 42.0964 60.9523C41.456 61.2934 40.8479 61.6787 40.2781 62.1045C39.2152 62.883 38.2727 63.7785 37.4742 64.7685C36.7785 65.6334 36.1943 66.5625 35.7323 67.5391C35.0634 68.9712 34.6561 70.4858 34.5252 72.0279C34.5364 72.6067 34.4775 73.1849 34.3495 73.7528C34.1077 73.1988 34.0035 72.6063 34.0439 72.0146C33.9915 70.4004 34.287 68.7919 34.9148 67.2727C35.3607 66.2243 35.9507 65.2269 36.672 64.3023C37.4841 63.2201 38.4637 62.2407 39.5829 61.3919C40.1859 60.9271 40.8296 60.504 41.5082 60.1265C42.2119 59.7265 42.9531 59.379 43.7238 59.0875C44.519 58.777 45.3417 58.5231 46.1838 58.3283C47.9271 57.9283 49.7328 57.7754 51.5318 57.8754C52.4009 57.9262 53.2643 58.0353 54.1142 58.2017C54.9324 58.3692 55.7345 58.5919 56.5131 58.8677C57.2619 59.1234 57.9873 59.4284 58.6829 59.7802C59.9664 60.4298 61.1456 61.2249 62.1896 62.1445C63.0883 62.9494 63.8755 63.8436 64.5351 64.8085C65.4836 66.1966 66.131 67.725 66.4451 69.3173C66.5961 69.8863 66.604 70.477 66.468 71.0489Z" fill="black"/>
</g>
<g opacity="0.3">
<path d="M52.8764 80.6792L53.1056 83.1235L50.5997 83.2966L50.424 80.9257C48.1913 81.0138 45.9752 80.5522 44.0293 79.5937L45.16 76.8364C46.6767 77.6116 48.3986 78.0293 50.1566 78.0485L49.8204 74.4055C46.986 74.0126 43.8078 73.4198 43.5251 70.303C43.3112 67.9919 45.0531 65.8741 48.9648 65.2014L48.7432 62.7838L51.188 62.604L51.4096 64.9816C53.2076 64.9426 54.9907 65.2759 56.6124 65.954L55.6116 68.7245C54.3775 68.2146 53.0408 67.9205 51.677 67.8587L52.0208 71.5684C54.8476 71.9413 57.9723 72.5341 58.2626 75.6043C58.4842 77.922 56.7652 79.9933 52.8764 80.6792ZM49.4843 71.222L49.194 68.1251C47.8952 68.4781 47.4291 69.1441 47.4979 69.8701C47.5666 70.596 48.3536 70.9889 49.4843 71.222ZM54.244 76.1704C54.1752 75.4112 53.4112 75.0449 52.3034 74.7918L52.5785 77.8021C53.8391 77.4758 54.3357 76.8697 54.244 76.1704Z" fill="black"/>
</g>
<path d="M34.3188 73.3466C34.3647 73.3466 34.4182 73.9593 34.6626 75.0515C35.0283 76.585 35.6841 78.0547 36.6032 79.4005C37.2356 80.3287 37.9838 81.1931 38.8341 81.9779C39.8288 82.8606 40.9451 83.6323 42.1575 84.2756C43.5017 84.977 44.9558 85.5042 46.4741 85.8407C48.1077 86.1893 49.7913 86.3261 51.4707 86.247C53.1459 86.1309 54.793 85.8034 56.3602 85.2746C57.812 84.7724 59.1731 84.0905 60.4018 83.25C62.4962 81.8069 64.1387 79.9262 65.1768 77.7821C65.8943 76.332 66.3307 74.7881 66.468 73.2134C66.5444 72.1078 66.5062 71.4884 66.552 71.4884C66.5876 71.6351 66.603 71.7849 66.5978 71.9347C66.6285 72.3627 66.6285 72.792 66.5978 73.22C66.5279 74.8214 66.1348 76.3996 65.4366 77.882C64.9549 78.899 64.345 79.8662 63.6182 80.7658C62.758 81.7816 61.7572 82.7009 60.6387 83.5031C59.3921 84.3649 58.0105 85.0669 56.536 85.5877C53.3194 86.7282 49.7666 86.9337 46.4053 86.1737C44.8448 85.8341 43.3495 85.2979 41.9665 84.582C40.7325 83.9195 39.6004 83.1228 38.5972 82.211C37.7383 81.3994 36.9874 80.5057 36.3587 79.547C35.449 78.1673 34.8232 76.6593 34.5098 75.0915C34.4362 74.6613 34.3928 74.2276 34.38 73.7928C34.3393 73.6467 34.3187 73.4969 34.3188 73.3466Z" fill="#263238"/>
<path d="M60.5469 275.105C60.5469 275.105 65.6733 277.995 68.0417 277.895C70.4101 277.795 79.7233 267.732 79.7233 267.732L74.8719 264.535L62.9229 266.26L60.5622 275.011" fill="#263238"/>
<path d="M162.182 127.512C163.195 130.859 163.232 134.373 162.289 137.735C161.345 141.097 159.452 144.199 156.78 146.76C154.328 149.064 151.203 150.949 149.652 153.786C147.933 156.93 148.491 160.626 147.727 164.049C146.963 167.472 143.632 171.109 139.812 170.283C143.433 174.945 148.934 178.348 154.832 180.686C160.73 183.023 167.056 184.395 173.344 185.761C176.843 186.513 180.617 187.259 183.964 186.087C188.295 184.575 190.45 180.426 192.184 176.65L207.296 143.743" fill="#263238"/>
<path d="M213.92 114.392C213.917 113.158 213.384 111.97 212.424 111.062C211.465 110.155 210.151 109.594 208.74 109.49L182.099 98.8344C172.481 98.1285 162.877 113.133 162.48 121.538C162.037 130.862 163.427 142.104 164.863 149.037C167.751 162.984 178.547 163.25 178.547 163.25L179.463 185.814L212.896 185.761L213.92 114.392Z" fill="#B5715A"/>
<path d="M169.493 132.694C169.501 133.162 169.718 133.608 170.097 133.939C170.477 134.27 170.989 134.459 171.526 134.465C171.788 134.478 172.05 134.445 172.297 134.368C172.544 134.291 172.771 134.172 172.965 134.017C173.158 133.863 173.314 133.676 173.424 133.468C173.534 133.26 173.595 133.036 173.604 132.807C173.598 132.34 173.383 131.893 173.005 131.562C172.626 131.231 172.115 131.042 171.579 131.036C171.316 131.021 171.053 131.053 170.804 131.129C170.556 131.205 170.327 131.324 170.133 131.479C169.938 131.634 169.781 131.821 169.672 132.03C169.562 132.239 169.501 132.464 169.493 132.694Z" fill="#263238"/>
<path d="M166.858 127.925C167.079 128.092 168.699 127.865 170.861 128.285C173.023 128.705 174.513 129.504 174.773 129.43C174.895 129.397 174.681 129.131 174.009 128.764C173.048 128.26 171.997 127.9 170.899 127.699C169.848 127.485 168.76 127.44 167.69 127.566C167.003 127.672 166.743 127.872 166.858 127.925Z" fill="#263238"/>
<path d="M190.381 131.761C190.387 132.23 190.603 132.679 190.982 133.011C191.362 133.343 191.876 133.533 192.413 133.54C192.675 133.552 192.938 133.519 193.185 133.442C193.432 133.365 193.659 133.246 193.852 133.091C194.046 132.937 194.202 132.75 194.312 132.543C194.422 132.335 194.483 132.11 194.491 131.881C194.486 131.414 194.271 130.966 193.893 130.634C193.515 130.302 193.003 130.112 192.467 130.103C192.204 130.091 191.942 130.124 191.694 130.201C191.447 130.278 191.219 130.397 191.025 130.551C190.831 130.705 190.674 130.892 190.563 131.1C190.453 131.308 190.391 131.533 190.381 131.761Z" fill="#263238"/>
<path d="M187.348 128.978C187.669 129.044 189.067 128.065 191.374 127.479C193.682 126.893 195.599 127.006 195.798 126.813C195.897 126.72 195.531 126.553 194.69 126.493C193.472 126.431 192.251 126.557 191.084 126.866C189.949 127.131 188.883 127.583 187.944 128.198C187.34 128.658 187.18 128.958 187.348 128.978Z" fill="#263238"/>
<path d="M179.54 141.858C179.54 141.745 178.165 141.565 175.926 141.359C175.361 141.319 174.826 141.232 174.719 140.892C174.662 140.385 174.782 139.874 175.063 139.427C175.567 138.222 176.094 136.963 176.644 135.638C178.837 130.25 180.411 125.827 180.159 125.747C179.907 125.668 177.928 129.983 175.735 135.371C175.216 136.703 174.711 137.969 174.207 139.174C173.864 139.777 173.778 140.466 173.963 141.119C174.048 141.302 174.183 141.465 174.356 141.594C174.529 141.722 174.735 141.813 174.956 141.858C175.271 141.925 175.594 141.956 175.919 141.951C178.157 141.998 179.54 141.978 179.54 141.858Z" fill="#263238"/>
<path d="M178.547 163.41C186.113 163.373 193.519 161.505 199.939 158.015C199.939 158.015 195.225 168.312 179.135 167.299L178.547 163.41Z" fill="#884C3B"/>
<path d="M180.036 146.553C180.475 145.885 181.079 145.31 181.805 144.871C182.53 144.432 183.359 144.14 184.231 144.016C184.738 143.965 185.251 144.049 185.702 144.257C186.154 144.465 186.522 144.787 186.76 145.181C187.014 145.697 187.122 146.259 187.074 146.819C187.026 147.379 186.824 147.921 186.485 148.398C186.158 148.9 185.67 149.308 185.081 149.571C184.492 149.834 183.827 149.94 183.169 149.877C182.08 149.627 181.102 149.101 180.357 148.365C180.104 148.188 179.904 147.959 179.777 147.699C179.711 147.532 179.689 147.353 179.715 147.178C179.74 147.003 179.811 146.834 179.922 146.687" fill="#884C3B"/>
<path d="M186.11 143.083C185.744 143.083 185.789 145.168 183.772 146.693C181.756 148.218 179.188 148.025 179.188 148.332C179.188 148.465 179.769 148.724 180.854 148.731C182.255 148.718 183.607 148.278 184.674 147.486C185.7 146.718 186.346 145.635 186.477 144.462C186.553 143.583 186.271 143.07 186.11 143.083Z" fill="#263238"/>
<path d="M185.652 119.807C185.942 120.306 188.104 119.807 190.717 119.807C193.33 119.807 195.507 120.193 195.79 119.687C195.905 119.447 195.477 119.021 194.568 118.581C193.358 118.081 192.034 117.829 190.695 117.842C189.357 117.856 188.039 118.136 186.844 118.661C185.95 119.107 185.53 119.567 185.652 119.807Z" fill="#263238"/>
<path d="M164.848 125.588C165.345 126.021 167.232 125.521 169.509 125.448C171.785 125.375 173.726 125.654 174.161 125.181C174.345 124.955 174.032 124.515 173.176 124.129C171.99 123.623 170.674 123.394 169.356 123.463C168.051 123.501 166.779 123.834 165.666 124.429C164.887 124.922 164.634 125.381 164.848 125.588Z" fill="#263238"/>
<path d="M230.338 148.951C228.955 142.744 224.631 122.857 218.259 112.487C211.888 102.118 204.607 98.0219 197.532 96.5034C194.846 95.8672 192.018 95.8455 189.32 96.4405C186.622 97.0355 184.145 98.227 182.13 99.9C179.02 102.444 178.126 109.677 178.126 109.677C178.126 109.677 195.187 112.614 201.123 120.932C207.953 130.483 209.672 135.325 209.672 135.325L211.964 140.579C211.964 140.579 213.767 166.16 213.171 171.215L238.796 179.281C233.295 169.417 231.729 155.178 230.338 148.951Z" fill="#263238"/>
<path d="M179.173 109.564C179.173 109.564 167.927 109.058 164.596 118.681C163.068 123.037 162.915 135.698 162.915 135.698C162.915 135.698 160.509 125.661 160.875 119.993C161.242 114.326 164.291 107.113 169.157 103.05C173.886 99.1008 177.92 97.2094 186.576 97.4891C186.576 97.4891 185.339 99.6336 183.207 102.537C182.138 103.996 180.457 104.156 179.173 109.564Z" fill="#263238"/>
<path d="M209.573 136.064C209.672 132.96 213.485 130.816 216.602 132.308C218.313 133.12 219.658 134.805 219.589 138.102C219.413 146.873 209.344 144.908 209.328 144.655C209.336 144.522 209.466 139.694 209.573 136.064Z" fill="#B5715A"/>
<path d="M212.468 141.378C212.514 141.378 212.644 141.492 212.942 141.612C213.355 141.773 213.822 141.79 214.249 141.658C215.318 141.332 216.243 139.873 216.327 138.328C216.365 137.576 216.211 136.825 215.876 136.13C215.789 135.855 215.626 135.602 215.401 135.394C215.176 135.186 214.896 135.03 214.585 134.938C214.384 134.887 214.169 134.898 213.978 134.971C213.786 135.045 213.63 135.174 213.538 135.338C213.401 135.584 213.462 135.757 213.408 135.771C213.355 135.784 213.194 135.624 213.286 135.265C213.341 135.046 213.485 134.852 213.691 134.718C213.971 134.542 214.319 134.468 214.661 134.512C215.074 134.588 215.457 134.756 215.774 134.998C216.091 135.241 216.332 135.55 216.472 135.897C216.883 136.665 217.074 137.508 217.03 138.355C216.93 140.12 215.853 141.758 214.394 142.104C214.122 142.168 213.838 142.178 213.562 142.133C213.285 142.088 213.024 141.989 212.797 141.845C212.484 141.592 212.438 141.392 212.468 141.378Z" fill="#884C3B"/>
<path d="M190.572 96.2303C190.572 96.2969 189.426 96.5101 187.684 97.1827C185.413 98.0604 183.459 99.4601 182.03 101.232C180.627 103.017 179.53 104.971 178.776 107.033C178.165 108.611 177.859 109.617 177.79 109.597C177.804 109.353 177.851 109.112 177.928 108.878C178.035 108.418 178.241 107.765 178.508 106.96C179.194 104.842 180.276 102.837 181.71 101.026C182.519 100.032 183.498 99.1513 184.613 98.4148C185.524 97.8221 186.517 97.332 187.569 96.9563C187.97 96.8077 188.381 96.6809 188.8 96.5767C189.109 96.482 189.425 96.4063 189.747 96.3502C190.015 96.2786 190.292 96.2383 190.572 96.2303Z" fill="#455A64"/>
<path d="M225.877 164.156C225.837 164.097 225.806 164.035 225.785 163.969C225.724 163.829 225.655 163.643 225.556 163.416C225.272 162.7 225.052 161.965 224.899 161.219C224.45 158.462 224.45 155.664 224.899 152.907C225.105 151.155 225.395 149.244 225.586 147.193C225.834 145.015 225.785 142.82 225.441 140.653C224.982 138.272 224.024 135.985 222.614 133.906C221.099 131.672 219.235 129.632 217.075 127.845C212.652 124.136 207.487 121.612 202.827 119.4C198.166 117.189 193.857 115.285 190.45 113.406C187.753 111.929 185.149 110.326 182.649 108.605C181.763 107.992 181.121 107.499 180.648 107.166L180.136 106.78C180.029 106.687 179.968 106.64 179.975 106.633L180.166 106.753C180.304 106.846 180.48 106.96 180.694 107.113L182.749 108.498C184.537 109.684 187.172 111.355 190.603 113.2C194.033 115.045 198.289 116.956 203.002 119.134C207.716 121.312 212.873 123.856 217.35 127.612C219.535 129.422 221.422 131.486 222.958 133.746C224.384 135.865 225.35 138.195 225.808 140.619C226.143 142.812 226.179 145.032 225.915 147.233C225.709 149.297 225.403 151.229 225.151 152.94C224.687 155.681 224.649 158.463 225.036 161.212C225.177 161.954 225.371 162.688 225.617 163.41C225.701 163.643 225.762 163.823 225.808 163.969C225.837 164.03 225.86 164.092 225.877 164.156Z" fill="#455A64"/>
<path d="M64.26 263.982C64.4362 263.844 64.6376 263.731 64.8559 263.649C65.4299 263.38 66.0308 263.157 66.6513 262.983C68.7128 262.407 70.9101 262.304 73.0307 262.684C75.1473 263.072 77.1162 263.922 78.7531 265.155C79.2427 265.524 79.6928 265.932 80.0977 266.373C80.388 266.693 80.5179 266.88 80.495 266.893C80.4721 266.906 79.8303 266.227 78.5697 265.348C76.9373 264.192 75.0101 263.395 72.9506 263.024C70.8911 262.653 68.7595 262.719 66.7354 263.217C65.1768 263.603 64.2906 264.042 64.26 263.982Z" fill="#263238"/>
<path d="M75.2998 259.021C75.8194 259.251 76.2918 259.555 76.6979 259.92C78.7765 261.58 80.244 263.74 80.9152 266.127C81.0854 266.612 81.1653 267.118 81.152 267.625C80.6449 266.003 79.9192 264.438 78.9899 262.963C77.9434 261.526 76.7047 260.203 75.2998 259.021Z" fill="#263238"/>
<path d="M133.639 316.157C133.639 316.157 141.753 281.718 158.95 275.058L227.137 273.313C227.137 273.313 249.668 286.467 253.274 316.35L133.639 316.157Z" fill="#263238"/>
<path d="M178.883 169.464C178.883 169.464 180.892 180.486 194.384 179.154C207.877 177.822 213.156 171.249 213.156 171.249L231.904 176.49L234.853 208.105C224.163 226.254 218.165 246.226 217.281 266.613C217.129 270.03 216.991 273.779 214.378 276.33C212.774 277.902 210.451 278.761 208.159 279.44C200.861 281.569 193.143 282.383 185.473 281.832C177.803 281.281 170.342 279.378 163.542 276.237C163.542 276.237 157.812 222.144 158.515 220.613C159.217 219.081 168.599 173.573 168.599 173.573L178.883 169.464Z" fill="#E0E0E0"/>
<path d="M158.95 171.961C158.95 171.961 147.032 172.694 143.838 174.086C140.645 175.478 98.8615 221.172 97.2342 221.871C95.9049 222.451 71.0367 242.597 60.7761 262.098C58.7515 265.94 57.1853 271.422 60.5164 275.058C60.5164 275.058 72.4959 261.944 79.6928 267.699L111.872 239.267L145.488 222.178L158.95 171.961Z" fill="#455A64"/>
<g opacity="0.3">
<path d="M171.136 261.265C185.285 237.449 185.285 202.937 178.539 171.249L172.488 216.277L171.136 261.265Z" fill="black"/>
</g>
<path d="M140.622 180.313L141.684 218.941C141.684 218.941 145.924 261.738 146.741 261.738C147.559 261.738 149.935 276.816 146.741 283.543C143.548 290.269 133.173 299.32 133.173 299.32L146.214 311.615C146.214 311.615 158.438 294.678 162.182 283.776C165.926 272.874 176.285 256.41 177.882 225.774C179.479 195.138 178.822 165.248 178.822 165.248L168.569 171.721L158.713 171.901L140.622 180.313Z" fill="#455A64"/>
<path d="M164.26 281.718C164.26 281.718 164.26 281.591 164.367 281.352C164.474 281.112 164.558 280.746 164.711 280.286L166.002 276.177C167.087 272.6 168.622 267.412 170.043 260.919C170.754 257.675 171.434 254.099 171.9 250.263C172.121 248.331 172.29 246.327 172.343 244.269C172.417 242.147 172.285 240.024 171.946 237.922C171.757 236.836 171.463 235.767 171.067 234.725C170.662 233.666 170.303 232.587 169.761 231.535L168.997 229.937L168.172 228.351C167.637 227.286 167.026 226.234 166.422 225.168C163.977 220.926 161.12 216.67 158.018 212.407C155.344 208.724 152.601 205.175 149.82 201.818L149.713 201.685L149.859 201.585L169.807 187.313L169.936 187.579L152.364 189.344L152.013 189.377L152.235 189.137C157.254 183.809 161.326 179.44 164.145 176.423L167.392 172.98L168.248 172.088C168.447 171.888 168.554 171.795 168.554 171.795L168.279 172.114L167.461 173.027L164.26 176.443L152.456 189.231L152.326 189.031L169.898 187.213L170.487 187.153L170.028 187.479L150.103 201.798L150.141 201.565C152.93 204.928 155.673 208.478 158.354 212.168C161.41 216.437 164.313 220.699 166.758 224.968C167.369 226.034 167.981 227.086 168.515 228.165L169.341 229.757L170.105 231.362C170.624 232.421 171.006 233.506 171.419 234.572C171.814 235.632 172.108 236.719 172.297 237.822C172.635 239.942 172.762 242.083 172.679 244.222C172.626 246.3 172.45 248.311 172.221 250.25C171.739 254.126 171.044 257.702 170.318 260.952C168.852 267.452 167.262 272.634 166.147 276.204C165.574 277.982 165.108 279.36 164.779 280.293C164.611 280.746 164.489 281.099 164.397 281.352C164.306 281.605 164.26 281.718 164.26 281.718Z" fill="#263238"/>
<path d="M213.156 161.765C213.156 161.765 219.757 170.636 220.445 171.249C220.445 171.249 248.331 178.128 249.981 181.025C256.765 192.973 251.287 197.269 249.981 213.693C248.353 234.106 240.515 262.517 240.515 262.517C240.515 262.517 251.547 299.58 252.739 301.625C253.931 303.669 215.188 316.09 211.078 311.415C206.968 306.74 203.751 290.636 203.751 290.636C203.751 290.636 199.931 257.915 201.406 244.882C202.88 231.848 209.81 218.448 212.254 202.704C214.745 186.067 213.156 161.765 213.156 161.765Z" fill="#455A64"/>
<path d="M202.804 253.08C202.812 252.918 202.84 252.757 202.888 252.6C202.972 252.261 203.079 251.808 203.209 251.268C203.339 250.729 203.545 249.936 203.751 249.131C203.957 248.325 204.385 247.386 204.76 246.367C206.902 241.087 209.808 236.067 213.408 231.428C217.004 226.793 221.058 222.441 225.525 218.421C227.244 216.883 228.696 215.691 229.727 214.892C230.239 214.492 230.659 214.226 230.942 213.999C231.083 213.896 231.237 213.807 231.4 213.733C231.4 213.733 229.108 215.478 225.731 218.588C221.34 222.644 217.331 227.003 213.744 231.621C210.168 236.233 207.239 241.201 205.019 246.42C204.637 247.432 204.255 248.345 203.965 249.157C203.675 249.97 203.529 250.682 203.361 251.275C203.193 251.868 203.063 252.274 202.964 252.607C202.924 252.768 202.87 252.926 202.804 253.08Z" fill="#263238"/>
<path d="M220.414 171.661C220.527 171.803 220.622 171.955 220.697 172.114C220.88 172.447 221.125 172.894 221.461 173.446C222.095 174.645 222.989 176.323 224.097 178.381C224.652 179.429 225.253 180.566 225.9 181.791L226.908 183.689C227.244 184.355 227.626 185.021 227.909 185.727C229.131 188.578 230.476 191.721 231.889 194.978L235.052 202.384L235.129 202.564L234.915 202.604L227.466 204.009L227.573 203.809L231.316 210.975C231.737 211.815 232.08 212.487 232.332 212.973L232.585 213.506C232.619 213.565 232.642 213.628 232.653 213.693C232.607 213.642 232.569 213.586 232.539 213.526L232.241 213.013L231.148 211.049L227.282 203.929L227.191 203.769L227.397 203.729L234.831 202.284L234.701 202.504L231.492 195.138C230.094 191.855 228.765 188.731 227.55 185.887C227.267 185.161 226.893 184.502 226.557 183.843L225.579 181.938L223.852 178.488C222.805 176.417 221.942 174.725 221.331 173.52L220.666 172.188C220.565 172.019 220.481 171.843 220.414 171.661Z" fill="#263238"/>
<path d="M238.773 258.368C238.773 258.368 253.037 270.802 260.371 270.09C267.706 269.377 277.286 255.524 277.286 250.729C277.286 245.934 270.41 215.018 270.41 215.018L273.26 203.383L246.52 202.937L241.172 238.774L238.773 258.368Z" fill="#455A64"/>
<path d="M256.123 175.305C256.105 175.394 256.074 175.481 256.032 175.564L255.711 176.304L255.176 177.502C254.939 177.969 254.679 178.508 254.374 179.107C253.755 180.313 252.945 181.771 251.929 183.423C250.913 185.075 249.637 186.906 248.109 188.851C244.516 193.421 240.261 197.566 235.449 201.185C232.621 203.335 229.578 205.26 226.358 206.94C222.901 208.768 219.122 210.089 215.173 210.849C211.199 211.601 207.076 211.514 203.147 210.596C201.286 210.145 199.504 209.473 197.853 208.598C196.28 207.747 194.856 206.702 193.628 205.494C191.436 203.227 189.551 200.746 188.013 198.102C186.485 195.671 185.094 193.386 183.933 191.255C182.874 189.34 181.953 187.369 181.175 185.354C180.598 183.831 180.148 182.273 179.83 180.692C179.553 179.346 179.431 177.978 179.463 176.61C179.472 176.701 179.472 176.792 179.463 176.883C179.463 177.076 179.463 177.336 179.517 177.669C179.602 178.676 179.748 179.679 179.952 180.672C180.295 182.242 180.765 183.789 181.358 185.301C182.156 187.299 183.089 189.254 184.154 191.155C185.331 193.273 186.737 195.544 188.272 197.969C189.807 200.59 191.683 203.048 193.865 205.295C195.076 206.473 196.476 207.494 198.021 208.325C199.645 209.178 201.396 209.832 203.224 210.27C207.091 211.167 211.148 211.249 215.058 210.509C218.965 209.755 222.704 208.45 226.129 206.646C229.332 204.98 232.361 203.073 235.182 200.946C239.981 197.353 244.235 193.242 247.841 188.711C249.369 186.78 250.638 184.948 251.707 183.33C252.777 181.711 253.564 180.246 254.206 179.054C254.519 178.455 254.794 177.922 255.038 177.462L255.604 176.277L255.963 175.551C256.005 175.464 256.059 175.381 256.123 175.305Z" fill="#263238"/>
<path d="M250.477 176.157C250.343 176.313 250.192 176.458 250.026 176.59L248.697 177.775L243.716 182.084L236.359 188.478C234.883 189.728 233.265 190.844 231.53 191.808C229.655 192.872 227.52 193.536 225.296 193.746C223.057 193.975 220.792 193.596 218.809 192.661C217.896 192.209 217.096 191.602 216.457 190.875C215.817 190.149 215.352 189.318 215.089 188.431C214.638 186.848 214.427 185.22 214.462 183.59C214.462 182.071 214.523 180.659 214.554 179.367C214.696 177.341 214.532 175.308 214.065 173.32C213.904 172.789 213.686 172.271 213.416 171.775C213.315 171.602 213.226 171.424 213.148 171.242C213.278 171.399 213.391 171.566 213.484 171.741C213.791 172.232 214.034 172.75 214.21 173.287C214.742 175.28 214.953 177.329 214.837 179.374C214.837 180.666 214.768 182.078 214.791 183.59C214.773 185.19 214.991 186.786 215.44 188.338C215.694 189.183 216.14 189.975 216.752 190.668C217.363 191.36 218.128 191.938 219 192.367C220.916 193.261 223.1 193.622 225.258 193.4C227.42 193.194 229.497 192.551 231.324 191.522C233.041 190.568 234.643 189.466 236.106 188.232C237.527 187.073 238.796 185.881 240.056 184.842C241.317 183.803 242.471 182.804 243.532 181.905L248.59 177.669L249.973 176.53C250.132 176.397 250.301 176.272 250.477 176.157Z" fill="#263238"/>
<path d="M149.293 266.686C149.268 266.629 149.253 266.568 149.247 266.507L149.156 265.967C149.087 265.468 148.987 264.768 148.858 263.889C148.598 262.051 148.231 259.447 147.78 256.237C146.879 249.777 145.603 240.846 144.403 230.969C143.8 226.027 143.296 221.318 142.875 217.023C142.455 212.727 142.188 208.864 142.027 205.608C141.92 203.982 141.867 202.511 141.821 201.219C141.775 199.927 141.737 198.814 141.737 197.889C141.737 196.963 141.737 196.297 141.737 195.791V195.251C141.73 195.189 141.73 195.127 141.737 195.065C141.747 195.124 141.747 195.185 141.737 195.245C141.737 195.391 141.737 195.571 141.775 195.791C141.775 196.297 141.806 196.996 141.867 197.889C141.867 198.794 141.943 199.887 142.02 201.219C142.096 202.551 142.165 203.982 142.28 205.601C142.478 208.851 142.822 212.714 143.219 217.003C143.617 221.292 144.159 226 144.747 230.942C145.954 240.812 147.184 249.743 148.01 256.21C148.407 259.427 148.774 262.044 148.965 263.876C149.064 264.762 149.14 265.461 149.194 265.967C149.194 266.189 149.209 266.369 149.24 266.507C149.269 266.563 149.287 266.624 149.293 266.686Z" fill="#263238"/>
<path d="M273.29 203.383H271.335L265.849 203.336L246.52 203.083L246.703 202.957C245.618 207.959 244.74 213.659 244.06 219.687C242.853 230.749 242.348 240.806 241.73 248.072C241.432 251.708 241.149 254.645 240.966 256.67C240.851 257.669 240.752 258.448 240.691 259.007C240.652 259.254 240.629 259.454 240.606 259.613C240.601 259.681 240.589 259.748 240.568 259.813C240.558 259.745 240.558 259.675 240.568 259.607C240.568 259.454 240.568 259.247 240.606 259.001C240.66 258.441 240.729 257.669 240.813 256.663C240.988 254.665 241.225 251.688 241.485 248.058C242.035 240.792 242.494 230.742 243.708 219.653C244.381 213.613 245.275 207.905 246.39 202.897V202.764H246.543L265.864 203.143L271.357 203.277L272.809 203.323H273.183C273.252 203.37 273.29 203.376 273.29 203.383Z" fill="#263238"/>
<path d="M266.758 211.828C267.914 211.828 268.852 211.011 268.852 210.003C268.852 208.995 267.914 208.178 266.758 208.178C265.602 208.178 264.665 208.995 264.665 210.003C264.665 211.011 265.602 211.828 266.758 211.828Z" fill="#E0E0E0"/>
<path d="M268.852 210.003C268.796 209.861 268.75 209.717 268.714 209.57C268.577 209.199 268.31 208.875 267.95 208.644C267.687 208.481 267.383 208.377 267.063 208.341C266.743 208.305 266.418 208.339 266.116 208.438C265.751 208.558 265.436 208.771 265.214 209.051C264.992 209.331 264.872 209.663 264.872 210.003C264.872 210.343 264.992 210.675 265.214 210.955C265.436 211.235 265.751 211.449 266.116 211.568C266.419 211.667 266.744 211.699 267.064 211.662C267.384 211.625 267.688 211.519 267.95 211.355C268.312 211.126 268.579 210.801 268.714 210.429C268.75 210.285 268.796 210.143 268.852 210.003C268.852 210.003 268.92 210.163 268.852 210.463C268.751 210.893 268.48 211.28 268.088 211.555C267.792 211.761 267.441 211.898 267.068 211.952C266.695 212.007 266.312 211.978 265.956 211.868C265.524 211.723 265.152 211.467 264.889 211.134C264.627 210.801 264.487 210.407 264.487 210.003C264.487 209.599 264.627 209.205 264.889 208.872C265.152 208.539 265.524 208.283 265.956 208.138C266.312 208.028 266.695 207.999 267.068 208.054C267.441 208.109 267.792 208.245 268.088 208.451C268.481 208.723 268.752 209.108 268.852 209.537C268.928 209.837 268.874 210.003 268.852 210.003Z" fill="#263238"/>
<path d="M207.258 267.998C208.414 267.998 209.351 267.181 209.351 266.174C209.351 265.166 208.414 264.349 207.258 264.349C206.102 264.349 205.165 265.166 205.165 266.174C205.165 267.181 206.102 267.998 207.258 267.998Z" fill="#E0E0E0"/>
<path d="M209.336 266.174C209.336 266.174 209.29 266.014 209.191 265.747C209.054 265.376 208.787 265.052 208.427 264.822C208.14 264.639 207.8 264.529 207.446 264.504C207.091 264.479 206.736 264.54 206.419 264.681C206.102 264.821 205.836 265.035 205.65 265.299C205.464 265.563 205.366 265.867 205.366 266.177C205.366 266.487 205.464 266.791 205.65 267.055C205.836 267.319 206.102 267.533 206.419 267.673C206.736 267.814 207.091 267.875 207.446 267.85C207.8 267.825 208.14 267.715 208.427 267.532C208.787 267.301 209.054 266.977 209.191 266.606C209.29 266.34 209.298 266.174 209.336 266.174C209.384 266.326 209.384 266.487 209.336 266.64C209.24 267.07 208.968 267.456 208.572 267.725C208.278 267.932 207.929 268.07 207.557 268.125C207.186 268.181 206.804 268.154 206.448 268.045C206.013 267.901 205.639 267.646 205.374 267.312C205.11 266.978 204.969 266.582 204.969 266.177C204.969 265.771 205.11 265.376 205.374 265.042C205.639 264.708 206.013 264.453 206.448 264.309C206.804 264.2 207.186 264.172 207.557 264.228C207.929 264.284 208.278 264.422 208.572 264.628C208.968 264.898 209.24 265.284 209.336 265.714C209.385 265.864 209.385 266.023 209.336 266.174Z" fill="#263238"/>
<path d="M213.683 293.979C213.683 294.341 213.56 294.695 213.329 294.997C213.098 295.298 212.77 295.533 212.386 295.671C212.002 295.81 211.58 295.846 211.172 295.775C210.765 295.705 210.39 295.53 210.097 295.274C209.803 295.018 209.603 294.692 209.522 294.336C209.441 293.981 209.482 293.613 209.641 293.278C209.8 292.944 210.069 292.657 210.415 292.456C210.76 292.255 211.167 292.148 211.582 292.148C212.139 292.148 212.674 292.341 213.068 292.684C213.462 293.027 213.683 293.493 213.683 293.979Z" fill="#E0E0E0"/>
<path d="M213.683 293.979C213.645 293.979 213.637 293.813 213.538 293.546C213.404 293.174 213.136 292.849 212.774 292.62C212.552 292.474 212.297 292.37 212.026 292.317C211.754 292.264 211.473 292.263 211.201 292.314C210.928 292.364 210.672 292.465 210.449 292.61C210.226 292.755 210.041 292.94 209.908 293.153C209.774 293.366 209.695 293.602 209.676 293.843C209.656 294.085 209.697 294.328 209.795 294.555C209.893 294.782 210.046 294.988 210.244 295.159C210.441 295.329 210.679 295.461 210.94 295.544C211.243 295.643 211.568 295.675 211.888 295.638C212.208 295.6 212.512 295.495 212.774 295.331C213.138 295.104 213.406 294.778 213.538 294.405C213.637 294.139 213.645 293.972 213.683 293.979C213.732 294.129 213.732 294.288 213.683 294.439C213.589 294.87 213.317 295.256 212.919 295.524C212.624 295.731 212.274 295.868 211.901 295.924C211.528 295.98 211.145 295.952 210.788 295.844C210.353 295.7 209.978 295.444 209.714 295.111C209.45 294.777 209.308 294.381 209.308 293.976C209.308 293.57 209.45 293.174 209.714 292.841C209.978 292.507 210.353 292.251 210.788 292.108C211.145 291.999 211.528 291.971 211.901 292.027C212.274 292.083 212.624 292.221 212.919 292.427C213.317 292.696 213.589 293.082 213.683 293.513C213.731 293.665 213.731 293.826 213.683 293.979Z" fill="#263238"/>
<path d="M270.456 215.018C270.456 215.118 264.97 214.971 258.232 214.705C251.493 214.439 246.008 214.139 246.008 214.039C246.008 213.939 251.493 214.086 258.232 214.359C264.97 214.632 270.456 214.925 270.456 215.018Z" fill="#263238"/>
<path d="M149.568 250.689L141.684 253.433L124.532 216.017C123.57 213.918 122.144 212.005 120.334 210.386C118.524 208.768 116.366 207.476 113.983 206.584C111.601 205.693 109.04 205.219 106.447 205.191C103.855 205.162 101.281 205.578 98.8729 206.417C96.465 207.255 94.27 208.499 92.4134 210.076C90.5568 211.654 89.0749 213.535 88.0522 215.612C87.0296 217.689 86.4862 219.922 86.4532 222.182C86.4202 224.442 86.8982 226.685 87.8598 228.784L105.012 266.2L97.1271 268.951L79.9677 231.535C78.5922 228.535 77.908 225.327 77.9544 222.097C78.0007 218.866 78.7765 215.675 80.2376 212.705C81.6987 209.736 83.8164 207.046 86.4698 204.79C89.1233 202.534 92.2605 200.756 95.7023 199.557C99.1441 198.358 102.823 197.761 106.529 197.802C110.236 197.842 113.896 198.519 117.303 199.792C124.182 202.365 129.608 207.214 132.386 213.273L149.568 250.689Z" fill="#E0E0E0"/>
<path d="M149.568 250.689L149.217 249.943L148.216 247.752L144.396 239.44C142.73 235.831 140.69 231.448 138.33 226.307C137.148 223.749 135.89 221.019 134.556 218.115C133.157 215.245 132.027 212.048 129.857 209.144C127.607 206.087 124.589 203.516 121.033 201.625C120.567 201.378 120.108 201.125 119.635 200.892L118.152 200.26C117.16 199.845 116.139 199.482 115.096 199.174C114.569 199.001 114.012 198.908 113.469 198.768C112.927 198.628 112.377 198.481 111.811 198.415C110.676 198.217 109.528 198.084 108.373 198.015C106.01 197.861 103.634 197.959 101.299 198.308L99.5338 198.668L98.6475 198.848L97.7766 199.101L96.0346 199.627C95.4616 199.82 94.9116 200.066 94.3462 200.293C89.686 202.184 85.7189 205.165 82.8862 208.904C80.6295 211.869 79.1448 215.229 78.5364 218.747C77.9279 222.266 78.2105 225.857 79.3642 229.27C80.2046 231.588 81.3506 233.873 82.4202 236.197L95.5992 264.941L97.4022 268.864L97.1424 268.771L105.027 266.02L104.92 266.247C101.505 258.808 98.1738 251.522 94.9268 244.449L90.1442 233.992L87.8064 228.898C87.0498 227.203 86.5789 225.422 86.4082 223.609C86.14 220.065 87.1181 216.534 89.2121 213.486C89.4437 213.11 89.6988 212.746 89.9761 212.394L90.8547 211.368C92.1068 210.077 93.5508 208.937 95.1484 207.978C95.5457 207.739 95.9659 207.546 96.3784 207.312L96.9896 206.999L97.639 206.74C99.333 206.03 101.133 205.532 102.987 205.261C104.789 205.013 106.62 204.971 108.434 205.135C111.925 205.489 115.247 206.638 118.068 208.465C120.74 210.153 122.864 212.415 124.234 215.031C124.394 215.344 124.562 215.657 124.723 215.964C124.883 216.27 125.013 216.597 125.151 216.91L126.006 218.768C126.562 220.002 127.112 221.207 127.657 222.384L133.585 235.364C137.145 243.197 139.934 249.35 141.791 253.4L141.714 253.366L147.673 251.322L149.133 250.829L149.622 250.669L149.163 250.842C148.842 250.955 148.399 251.122 147.727 251.355L141.76 253.46H141.707V253.413C139.827 249.35 137.008 243.237 133.402 235.431C131.599 231.522 129.582 227.186 127.427 222.464L125.77 218.854C125.487 218.242 125.197 217.622 124.914 216.996L124.478 216.05C124.318 215.744 124.157 215.438 123.989 215.131C123.318 213.874 122.477 212.691 121.483 211.608C120.431 210.508 119.23 209.522 117.908 208.671C115.122 206.889 111.852 205.771 108.419 205.428C106.637 205.273 104.84 205.317 103.071 205.561C101.257 205.833 99.496 206.324 97.8377 207.019L97.2036 207.273L96.6 207.586C96.2027 207.799 95.7825 207.992 95.3929 208.218C94.6133 208.687 93.8706 209.201 93.1696 209.757C92.4598 210.315 91.796 210.915 91.1832 211.555L90.3199 212.567C90.0143 212.9 89.8004 213.28 89.5559 213.633C87.5056 216.628 86.549 220.096 86.8132 223.576C86.9864 225.354 87.4494 227.101 88.1884 228.764C88.9524 230.449 89.7164 232.154 90.5338 233.866L95.3241 244.315L105.325 266.114L105.401 266.273L105.218 266.34C102.651 267.226 100.015 268.152 97.3334 269.084L97.1424 269.151L97.0737 268.991L95.2706 265.061C90.7554 255.218 86.3548 245.601 82.0993 236.317C81.0526 233.986 79.9142 231.728 79.0433 229.357C78.2772 227.002 77.8914 224.565 77.8973 222.118C77.9619 219.72 78.3962 217.341 79.1884 215.045C80.0083 212.813 81.1672 210.688 82.6341 208.724C85.496 204.943 89.5019 201.926 94.2087 200.006C94.7893 199.787 95.347 199.54 95.9277 199.34L97.6849 198.814C97.9828 198.734 98.2732 198.634 98.5635 198.561L99.465 198.381L101.253 198.022C103.618 197.666 106.026 197.568 108.419 197.729C109.585 197.799 110.743 197.937 111.888 198.142C112.455 198.233 113.016 198.35 113.568 198.495C114.119 198.641 114.684 198.734 115.211 198.908C116.278 199.225 117.324 199.594 118.343 200.013L119.871 200.679C120.345 200.912 120.811 201.179 121.277 201.418C124.867 203.338 127.911 205.943 130.178 209.037C132.363 211.988 133.486 215.198 134.876 218.082L138.635 226.313C140.973 231.448 142.982 235.871 144.633 239.487L148.399 247.799L149.377 249.956C149.469 250.416 149.568 250.689 149.568 250.689Z" fill="#263238"/>
<path d="M145.312 225.036L85.3954 245.917C81.4735 247.283 79.5652 251.163 81.133 254.582L99.604 294.859C101.172 298.278 105.622 299.941 109.544 298.575L169.461 277.694C173.383 276.327 175.291 272.448 173.723 269.029L155.252 228.752C153.685 225.333 149.234 223.669 145.312 225.036Z" fill="#191616"/>
<g opacity="0.3">
<path d="M145.043 225.13L85.665 245.823C81.5942 247.241 79.6134 251.268 81.2408 254.817L99.4962 294.624C101.124 298.173 105.743 299.899 109.814 298.481L169.191 277.788C173.262 276.37 175.243 272.343 173.616 268.794L155.36 228.987C153.733 225.438 149.114 223.712 145.043 225.13Z" fill="black"/>
</g>
<path d="M136.603 228.07L81.9996 247.099C78.0895 248.462 76.1869 252.329 77.75 255.738L96.238 296.052C97.8011 299.461 102.238 301.12 106.148 299.757L160.752 280.728C164.662 279.365 166.565 275.498 165.001 272.089L146.513 231.775C144.95 228.366 140.513 226.707 136.603 228.07Z" fill="#191616"/>
<g opacity="0.3">
<path d="M128.787 255.95C128.167 254.579 127.119 253.386 125.762 252.505C124.405 251.624 122.793 251.092 121.108 250.967C119.423 250.842 117.731 251.129 116.223 251.797C114.715 252.465 113.45 253.487 112.573 254.747C111.695 256.007 111.238 257.456 111.254 258.931C111.27 260.405 111.757 261.847 112.662 263.093C113.567 264.338 114.853 265.339 116.375 265.982C117.897 266.626 119.595 266.886 121.277 266.733L125.395 275.724C125.641 276.255 126.119 276.679 126.723 276.904C127.328 277.129 128.009 277.135 128.619 276.923C128.921 276.818 129.197 276.662 129.43 276.464C129.663 276.267 129.849 276.031 129.977 275.771C130.105 275.51 130.174 275.23 130.178 274.947C130.182 274.664 130.123 274.382 130.002 274.119L125.877 265.128C127.441 264.082 128.571 262.621 129.097 260.965C129.622 259.308 129.513 257.548 128.787 255.95Z" fill="black"/>
</g>
<path d="M165.589 273.313C165.482 273.346 161.242 264.189 156.116 252.86C150.989 241.532 146.902 232.314 147.009 232.281C147.116 232.248 151.348 241.405 156.482 252.734C161.617 264.062 165.689 273.28 165.589 273.313Z" fill="#263238"/>
<path d="M128.146 265.887C128.977 265.134 129.701 264.295 130.3 263.39C130.919 262.397 131.332 261.317 131.523 260.2C131.783 258.837 131.666 257.44 131.181 256.125C130.696 254.81 129.857 253.615 128.734 252.64C127.838 251.819 126.783 251.143 125.617 250.642C124.522 250.214 123.373 249.899 122.194 249.703C122.521 249.687 122.85 249.705 123.172 249.757C124.057 249.871 124.919 250.095 125.731 250.423C126.95 250.908 128.056 251.586 128.994 252.421C130.171 253.424 131.049 254.662 131.553 256.028C132.056 257.394 132.169 258.847 131.882 260.259C131.673 261.408 131.219 262.513 130.545 263.516C130.102 264.195 129.549 264.814 128.902 265.354C128.677 265.559 128.423 265.738 128.146 265.887Z" fill="#263238"/>
<path d="M128.505 232.747C128.543 232.834 119.375 236.237 108.022 240.346C96.6688 244.455 87.3938 247.719 87.3938 247.632C87.3938 247.546 96.5236 244.142 107.884 240.026C119.245 235.911 128.459 232.66 128.505 232.747Z" fill="white"/>
<path d="M113.461 265.887C113.255 265.799 113.064 265.685 112.896 265.548C112.422 265.2 111.992 264.809 111.613 264.382C110.322 262.971 109.557 261.249 109.42 259.448C109.284 257.647 109.782 255.853 110.849 254.305C111.165 253.84 111.536 253.405 111.956 253.007C112.098 252.85 112.268 252.715 112.461 252.607C112.522 252.654 111.827 253.273 111.093 254.425C110.126 255.95 109.681 257.684 109.809 259.423C109.938 261.162 110.635 262.832 111.819 264.236C112.736 265.321 113.507 265.834 113.461 265.887Z" fill="white"/>
<path d="M118.42 268.205C118.42 268.305 117.824 268.298 117.129 268.205C116.433 268.112 115.876 267.945 115.899 267.845C115.922 267.745 116.495 267.759 117.19 267.845C117.885 267.932 118.42 268.112 118.42 268.205Z" fill="white"/>
<path d="M93.7427 201.798C93.3109 202.04 92.8646 202.263 92.4057 202.464C91.1955 203.071 90.0433 203.761 88.9601 204.529C84.8468 207.476 81.9265 211.496 80.6283 215.997C79.3302 220.499 79.7226 225.244 81.7479 229.537C82.1223 230.336 82.3591 230.769 82.3286 230.782C82.2468 230.69 82.1775 230.589 82.1223 230.483C82.0001 230.283 81.8014 229.99 81.6028 229.59C81.0152 228.472 80.5497 227.308 80.2123 226.114C79.049 222.147 79.243 217.969 80.7703 214.097C82.2976 210.225 85.0914 206.827 88.8073 204.322C89.9146 203.561 91.1014 202.892 92.3523 202.324C92.7954 202.118 93.1545 201.991 93.3913 201.898C93.5045 201.855 93.6222 201.821 93.7427 201.798Z" fill="white"/>
<path d="M84.6589 237.449C84.2004 236.882 83.8495 236.255 83.6198 235.591C83.2704 234.962 83.0432 234.287 82.9475 233.593C83.413 234.156 83.7644 234.784 83.9866 235.451C84.335 236.08 84.5622 236.755 84.6589 237.449Z" fill="white"/>
<g opacity="0.3">
<path d="M141.821 198.095C138.391 206.653 140.087 216.277 143.907 224.735C143.907 224.708 141.913 207.053 141.821 198.095Z" fill="black"/>
</g>
<g opacity="0.3">
<path d="M201.887 260.573C205.669 253.127 209.458 245.654 214.332 238.708C219.207 231.761 225.028 225.161 232.477 220.28C234.494 218.948 238.261 216.47 238.261 216.47C238.261 216.47 237.252 214.805 236.259 213.426C235.113 211.828 233.203 209.057 232.195 207.692L236.664 208.471C236.664 208.471 233.608 202.331 233.692 202.744C231.696 203.197 229.673 203.559 227.634 203.829C229.2 207.093 230.865 210.043 232.432 213.306C224.028 219.134 217.152 226.467 211.391 234.219C205.631 241.971 201.642 250.969 201.849 260.193" fill="black"/>
</g>
<path d="M217.862 143.696C217.961 143.623 218.198 143.696 218.466 143.956C218.825 144.358 219.009 144.858 218.985 145.368C218.986 145.735 218.897 146.098 218.725 146.433C218.514 146.839 218.191 147.194 217.786 147.466C217.325 147.783 216.777 147.991 216.196 148.07C215.615 148.148 215.021 148.093 214.471 147.911C213.922 147.729 213.436 147.427 213.061 147.032C212.685 146.638 212.434 146.165 212.331 145.661C212.241 145.262 212.257 144.851 212.377 144.458C212.498 144.066 212.72 143.703 213.026 143.396C213.397 143.005 213.913 142.739 214.485 142.644C214.89 142.597 215.112 142.684 215.142 142.797C215.203 143.037 214.546 143.343 214.187 144.089C213.986 144.468 213.959 144.899 214.111 145.295C214.187 145.522 214.323 145.731 214.507 145.904C214.692 146.078 214.92 146.212 215.175 146.295C215.429 146.379 215.702 146.409 215.972 146.385C216.242 146.36 216.502 146.281 216.731 146.154C217.147 145.95 217.457 145.613 217.595 145.215C217.885 144.449 217.625 143.856 217.862 143.696Z" fill="#E0E0E0"/>
<path d="M79.8914 286.034C79.8914 286.034 82.4966 293.36 83.8412 294.832C85.1859 296.303 94.1782 297.096 94.1782 297.096L79.8914 286.034Z" fill="#B5715A"/>
<path d="M90.6638 274.392L95.6527 277.882L110.459 287.832C110.459 287.832 110.367 290.23 107.036 289.683C104.332 289.237 98.3343 286.353 98.3343 286.353C98.3343 286.353 105.378 292.121 105.623 294.818V295.311C105.617 295.908 105.342 296.48 104.859 296.903L96.6306 292.114C96.6306 292.114 98.3954 294.818 100.13 297.622C100.39 298.185 100.475 298.799 100.376 299.4C100.277 300.001 99.9966 300.569 99.5644 301.045L81.2284 287.639L81.1138 277.649L90.6256 274.385" fill="#B5715A"/>
<path d="M88.7156 280.652C88.9513 280.666 89.1832 280.711 89.4032 280.786C89.6171 280.852 89.8692 280.952 90.1672 281.065C90.4651 281.179 90.7707 281.345 91.1222 281.518C92.5127 282.237 94.2775 283.403 96.2333 284.682C97.8706 285.792 99.5937 286.802 101.39 287.705C102.788 288.371 103.736 288.624 103.682 288.684C103.449 288.67 103.22 288.626 103.002 288.551C102.742 288.485 102.487 288.405 102.238 288.311C101.899 288.199 101.568 288.07 101.245 287.925C99.3869 287.077 97.62 286.086 95.9659 284.961C94.0101 283.676 92.2835 282.484 90.9465 281.725L90.0373 281.238L89.3191 280.912C89.1064 280.848 88.9036 280.76 88.7156 280.652Z" fill="#884C3B"/>
<path d="M87.0349 285.521C87.5992 285.756 88.1321 286.044 88.624 286.38C89.5638 286.946 90.832 287.772 92.1843 288.731C93.5366 289.69 94.7208 290.602 95.5535 291.288C96.0295 291.632 96.4577 292.023 96.8294 292.454C96.3025 292.173 95.8108 291.845 95.3625 291.475L91.9322 288.997L88.456 286.573C87.9428 286.265 87.4667 285.912 87.0349 285.521Z" fill="#884C3B"/>
<path d="M62.3042 273.313C62.1743 273.44 62.3653 273.679 62.4876 273.906C64.4816 277.536 81.5876 287.845 81.5876 287.845L90.916 273.986C90.916 273.986 97.6927 276.843 100.474 276.184C102.766 275.637 107.075 275.231 105.058 271.728C105.058 271.728 95.5 270.196 92.253 268.977C89.006 267.759 86.9738 267.126 86.9738 267.126C83.2655 267.203 79.5605 266.883 75.9416 266.174C75.9416 266.174 70.2269 265.474 62.3042 273.313Z" fill="#B5715A"/>
<path d="M99.1289 300.719C98.3709 300.274 97.6485 299.784 96.9668 299.254C95.561 298.261 93.7885 297.003 91.8174 295.617C89.8463 294.232 87.9974 292.88 86.7445 291.894C86.1103 291.408 85.6061 291.002 85.2623 290.716C85.0713 290.578 84.9018 290.419 84.7581 290.243C85.5195 290.687 86.2446 291.176 86.9278 291.708L92.0695 295.344C94.0789 296.77 95.8895 298.082 97.1425 299.067C97.7766 299.553 98.2885 299.96 98.6247 300.246C98.9608 300.533 99.1518 300.706 99.1289 300.719Z" fill="#884C3B"/>
<path d="M259.47 152.967L265.36 153.773L266.071 149.85L263.779 149.537L264.1 147.752L261.976 147.459L262.258 145.894L264.711 146.227L264.955 144.895L261.028 144.356L261.12 143.843C261.152 143.519 261.036 143.197 260.797 142.948C260.558 142.698 260.215 142.541 259.844 142.511C259.474 142.49 259.109 142.594 258.825 142.801C258.541 143.008 258.358 143.302 258.316 143.623C257.175 149.972 256.032 156.315 254.886 162.651L253.969 167.725C252.065 167.771 250.249 168.434 248.876 169.586C247.504 170.738 246.676 172.295 246.552 173.952C246.429 175.609 247.021 177.247 248.211 178.543C249.401 179.84 251.103 180.703 252.985 180.962C254.866 181.22 256.791 180.857 258.382 179.943C259.972 179.029 261.113 177.631 261.582 176.021C262.05 174.411 261.812 172.707 260.914 171.243C260.016 169.779 258.523 168.659 256.727 168.105C257.613 163.221 258.497 158.337 259.378 153.453L259.47 152.967ZM259.798 175.138C259.623 176.104 259.123 177.004 258.362 177.723C257.6 178.442 256.612 178.948 255.521 179.177C254.429 179.406 253.285 179.348 252.231 179.01C251.178 178.672 250.263 178.07 249.603 177.279C248.942 176.488 248.565 175.544 248.519 174.567C248.474 173.589 248.762 172.622 249.347 171.787C249.932 170.952 250.788 170.287 251.806 169.875C252.825 169.464 253.96 169.326 255.069 169.477C255.808 169.578 256.517 169.806 257.155 170.146C257.793 170.487 258.347 170.934 258.787 171.462C259.226 171.989 259.541 172.588 259.715 173.222C259.889 173.856 259.917 174.514 259.798 175.158V175.138Z" fill="#E0E0E0"/>
<path d="M259.798 175.158C259.844 174.454 259.758 173.748 259.546 173.067C259.285 172.295 258.804 171.594 258.148 171.029C257.312 170.289 256.224 169.806 255.046 169.65L255.145 169.364L256.33 169.817L255.046 169.65C254.044 169.516 253.019 169.626 252.084 169.968C251.149 170.31 250.341 170.871 249.749 171.589C249.158 172.307 248.805 173.153 248.732 174.035C248.658 174.916 248.865 175.798 249.331 176.583C249.82 177.43 250.593 178.127 251.547 178.581C252.35 178.973 253.253 179.184 254.174 179.195C255.095 179.205 256.004 179.015 256.819 178.641C257.93 178.127 258.816 177.308 259.34 176.31C259.516 175.936 259.669 175.553 259.798 175.165C259.815 175.269 259.815 175.374 259.798 175.478C259.741 175.781 259.646 176.078 259.515 176.363C259.027 177.423 258.134 178.303 256.987 178.854C256.306 179.18 255.557 179.384 254.785 179.454C254.013 179.524 253.232 179.458 252.489 179.262C251.746 179.065 251.056 178.741 250.458 178.308C249.861 177.876 249.369 177.344 249.01 176.743C248.512 175.905 248.291 174.963 248.37 174.022C248.449 173.08 248.827 172.177 249.46 171.411C250.094 170.646 250.958 170.048 251.958 169.686C252.958 169.323 254.053 169.209 255.122 169.357L255.023 169.644L253.785 169.151L255.122 169.357C256.366 169.537 257.509 170.065 258.377 170.862C259.044 171.469 259.523 172.214 259.768 173.027C259.919 173.544 259.976 174.079 259.936 174.612C259.914 174.798 259.867 174.981 259.798 175.158Z" fill="#263238"/>
<path d="M259.47 152.967C259.47 152.967 259.47 153.127 259.409 153.446C259.195 154.892 258.27 160.213 256.872 168.098L256.788 167.965C258.544 168.539 259.999 169.654 260.877 171.099C261.756 172.543 261.997 174.218 261.555 175.808C261.114 177.397 260.021 178.79 258.482 179.725C256.942 180.659 255.064 181.07 253.201 180.881C251.338 180.691 249.619 179.913 248.369 178.694C247.119 177.475 246.424 175.9 246.415 174.264C246.406 172.629 247.084 171.048 248.321 169.819C249.557 168.59 251.268 167.798 253.129 167.592C253.411 167.552 253.694 167.546 253.969 167.526L253.778 167.672C254.756 162.291 255.696 157.103 256.574 152.241C257.017 149.81 257.445 147.459 257.858 145.208C257.957 144.642 258.064 144.089 258.163 143.536C258.215 143.23 258.382 142.946 258.637 142.731C258.893 142.515 259.223 142.379 259.577 142.344C259.923 142.315 260.27 142.387 260.565 142.549C260.859 142.71 261.084 142.952 261.204 143.237C261.302 143.514 261.302 143.811 261.204 144.089V144.282V144.336L260.875 144.296V144.256V144.162L260.952 143.776L261.273 143.823L261.181 144.336L261.044 144.176L264.971 144.722H265.123V144.855C265.032 145.335 264.955 145.774 264.871 146.187V146.314H264.726L262.274 145.967L262.434 145.867C262.327 146.433 262.235 146.94 262.144 147.432L262.029 147.299L264.161 147.599H264.283V147.712C264.161 148.378 264.054 148.938 263.947 149.49L263.847 149.371L266.139 149.697H266.246V149.79C265.961 151.282 265.706 152.59 265.482 153.713V153.786H265.398L261.051 153.12L259.913 152.947L259.523 152.88H259.89L261.013 153.02L265.429 153.58L265.33 153.64C265.528 152.514 265.75 151.209 266.01 149.717L266.101 149.823L263.809 149.524H263.695V149.424L264.008 147.639L264.115 147.765L261.991 147.479H261.853V147.366C261.937 146.866 262.029 146.36 262.128 145.794V145.674H262.266L264.726 146.001L264.55 146.107C264.634 145.674 264.711 145.235 264.795 144.775L264.925 144.928L260.99 144.395H260.83V144.256L260.921 143.736L261.242 143.783L261.173 144.169V144.262V144.302C260.516 144.209 260.998 144.302 260.845 144.249V144.202V144.009C260.926 143.779 260.926 143.533 260.845 143.303C260.751 143.08 260.575 142.89 260.344 142.763C260.113 142.637 259.841 142.581 259.569 142.604C259.29 142.631 259.029 142.739 258.829 142.911C258.628 143.082 258.499 143.307 258.461 143.55L258.163 145.215L256.903 152.254C256.032 157.116 255.092 162.304 254.129 167.686V167.819H253.961C253.702 167.819 253.426 167.819 253.159 167.879C251.64 168.06 250.223 168.646 249.101 169.556C247.978 170.467 247.206 171.657 246.889 172.965C246.572 174.272 246.726 175.633 247.33 176.861C247.934 178.09 248.959 179.125 250.264 179.827C251.877 180.699 253.813 180.999 255.673 180.666C257.267 180.373 258.708 179.635 259.777 178.564C260.847 177.492 261.486 176.146 261.599 174.729C261.711 173.312 261.29 171.902 260.4 170.713C259.51 169.523 258.199 168.62 256.666 168.138L256.559 168.105V168.005C258.01 160.12 259.011 154.805 259.309 153.353C259.432 153.093 259.47 152.967 259.47 152.967Z" fill="#263238"/>
<path d="M246.497 172.268L255.94 170.103L260.845 170.649C261.291 170.701 261.715 170.85 262.077 171.083C262.439 171.316 262.727 171.625 262.915 171.981L266.093 178.015C266.093 178.015 270.677 181.345 270.15 183.343C269.623 185.341 265.368 203.27 265.368 203.27L252.708 202.937C250.494 200.544 249.162 197.624 248.888 194.559C248.751 192.041 249.851 190.503 249.576 189.171C249.392 188.258 250.042 186.633 250.34 185.381L250.722 184.169L249.881 184.522C249.52 184.675 249.123 184.753 248.722 184.747C248.32 184.742 247.926 184.654 247.57 184.492C247.215 184.329 246.908 184.096 246.675 183.81C246.442 183.525 246.29 183.196 246.229 182.85C246.226 182.786 246.226 182.722 246.229 182.657C246.188 181.948 246.319 181.239 246.616 180.578C246.912 179.917 247.366 179.318 247.948 178.821L252.723 174.732C252.723 174.732 247.444 177.356 246.497 172.268Z" fill="#B5715A"/>
<path d="M262.564 182.278C262.268 182.282 261.973 182.253 261.685 182.191L259.34 181.825L255.864 181.239C255.214 181.132 254.527 180.979 253.831 180.926C253.491 180.877 253.143 180.899 252.815 180.991C252.487 181.082 252.189 181.24 251.944 181.452C251.532 181.957 251.27 182.542 251.18 183.157C251.027 183.776 250.882 184.369 250.745 184.942C250.449 185.925 250.242 186.927 250.126 187.939C250.106 188.271 250.179 188.602 250.337 188.905C250.495 189.207 250.735 189.472 251.035 189.677C251.27 189.809 251.528 189.906 251.799 189.963C251.724 189.982 251.645 189.982 251.57 189.963C251.344 189.947 251.127 189.883 250.936 189.777C250.589 189.577 250.306 189.305 250.112 188.985C249.919 188.665 249.821 188.307 249.828 187.945C249.897 186.91 250.076 185.882 250.363 184.875C250.493 184.302 250.63 183.703 250.775 183.09C250.882 182.41 251.187 181.766 251.662 181.219C251.947 180.968 252.297 180.78 252.682 180.672C253.068 180.563 253.477 180.536 253.877 180.593C254.577 180.669 255.27 180.781 255.955 180.926L259.409 181.592L261.701 182.064C261.997 182.105 262.287 182.177 262.564 182.278Z" fill="#884C3B"/>
<path d="M257.644 191.388C257.644 191.388 257.644 191.728 257.162 192.054C256.855 192.238 256.488 192.329 256.116 192.314C255.645 192.293 255.179 192.215 254.733 192.081C253.518 191.813 252.45 191.181 251.715 190.296C251.349 189.705 251.152 189.046 251.141 188.375C251.131 187.703 251.307 187.039 251.654 186.44C251.95 185.807 252.346 185.213 252.831 184.675C253.085 184.409 253.414 184.204 253.786 184.082C254.146 183.985 254.528 183.962 254.901 184.016C256.093 184.229 257.256 184.552 258.37 184.982C259.119 185.258 259.847 185.578 260.547 185.941C260.826 186.055 261.084 186.205 261.311 186.387C261.311 186.44 260.195 185.854 258.293 185.208C257.191 184.822 256.051 184.528 254.886 184.329C254.568 184.287 254.244 184.31 253.938 184.395C253.638 184.505 253.375 184.679 253.174 184.902C252.723 185.413 252.353 185.975 252.074 186.573C251.751 187.122 251.582 187.731 251.582 188.348C251.582 188.965 251.751 189.574 252.074 190.123C252.752 190.957 253.736 191.565 254.863 191.848C255.283 191.986 255.722 192.078 256.169 192.121C256.501 192.147 256.834 192.084 257.124 191.941C257.352 191.802 257.532 191.61 257.644 191.388Z" fill="#884C3B"/>
<path d="M257.521 190.19C257.521 190.23 257.3 190.343 256.872 190.383C256.314 190.432 255.752 190.338 255.254 190.114C254.756 189.889 254.344 189.543 254.068 189.117C253.862 188.798 253.831 188.565 253.877 188.551C253.923 188.538 254.389 189.337 255.443 189.803C256.105 190.037 256.808 190.168 257.521 190.19Z" fill="#884C3B"/>
<path d="M258.438 192.421C258.377 192.494 257.781 192.188 257.353 191.568C256.926 190.949 256.872 190.343 256.979 190.336C257.086 190.329 257.3 190.829 257.69 191.388C258.079 191.948 258.515 192.341 258.438 192.421Z" fill="#884C3B"/>
<path d="M258.186 198.528C257.659 197.589 257.404 196.552 257.443 195.507C257.481 194.462 257.813 193.441 258.408 192.534C258.137 193.513 257.948 194.508 257.842 195.511C257.873 196.523 257.988 197.531 258.186 198.528Z" fill="#884C3B"/>
<path d="M257.949 193.073C256.84 193.455 255.83 194.026 254.977 194.752C254.125 195.478 253.447 196.345 252.983 197.303C252.975 196.983 253.059 196.667 253.228 196.383C253.568 195.676 254.066 195.035 254.695 194.499C255.322 193.963 256.068 193.544 256.887 193.267C257.216 193.123 257.582 193.056 257.949 193.073Z" fill="#884C3B"/>
<path d="M254.068 179.36C254.183 179.36 254.244 179.7 254.114 180.086C253.984 180.473 253.732 180.752 253.633 180.686C253.533 180.619 253.633 180.339 253.732 180.02C253.831 179.7 253.961 179.354 254.068 179.36Z" fill="#884C3B"/>
<path d="M265.299 179.48C264.64 179.239 264.008 178.945 263.412 178.601C262.266 178.028 260.707 177.209 259.004 176.284C258.221 175.841 257.392 175.465 256.528 175.158C255.828 174.92 255.08 174.806 254.328 174.825C253.633 174.867 252.955 175.03 252.334 175.305C252.334 175.305 252.456 175.151 252.785 174.985C253.254 174.754 253.775 174.615 254.313 174.579C255.106 174.526 255.903 174.622 256.651 174.858C257.548 175.154 258.406 175.533 259.21 175.991C260.921 176.91 262.457 177.762 263.557 178.395C264.173 178.711 264.756 179.074 265.299 179.48Z" fill="#884C3B"/>
<path d="M259.462 153.18C259.52 151.669 259.709 150.164 260.027 148.678C260.212 147.175 260.534 145.687 260.99 144.229C260.932 145.74 260.743 147.245 260.425 148.731C260.235 150.233 259.913 151.721 259.462 153.18Z" fill="#263238"/>
<g opacity="0.3">
<path d="M260.99 144.455C261.392 145.852 261.469 147.305 261.216 148.728C260.962 150.151 260.384 151.516 259.515 152.74C260.065 150.31 260.616 147.02 260.99 144.455Z" fill="black"/>
</g>
</svg>
